<?xml version="1.0" encoding="utf-8"?>
<!-- Generator: Adobe Illustrator 26.0.1, SVG Export Plug-In . SVG Version: 6.00 Build 0)  -->
<svg version="1.1" id="Layer_1" xmlns="http://www.w3.org/2000/svg" xmlns:xlink="http://www.w3.org/1999/xlink" x="0px" y="0px"
	 viewBox="0 0 96 72" style="enable-background:new 0 0 96 72;" xml:space="preserve">
<style type="text/css">
	.st0{fill:#545459;}
</style>
<path class="st0" d="M90,12H6c-3.3,0-6-2.7-6-6s2.7-6,6-6h84c3.3,0,6,2.7,6,6S93.3,12,90,12z"/>
<path class="st0" d="M90,72H6c-3.3,0-6-2.7-6-6s2.7-6,6-6h84c3.3,0,6,2.7,6,6S93.3,72,90,72z"/>
<path class="st0" d="M77.5,41.9h-59c-3.3,0-5.9-2.6-5.9-5.9s2.6-5.9,5.9-5.9h59c3.3,0,5.9,2.6,5.9,5.9S80.8,41.9,77.5,41.9z"/>
</svg>
