<?xml version="1.0" encoding="utf-8"?>
<!-- Generator: Adobe Illustrator 26.0.1, SVG Export Plug-In . SVG Version: 6.00 Build 0)  -->
<svg version="1.1" id="Layer_1" xmlns="http://www.w3.org/2000/svg" xmlns:xlink="http://www.w3.org/1999/xlink" x="0px" y="0px"
	 viewBox="0 0 72 72" style="enable-background:new 0 0 72 72;" xml:space="preserve">
<style type="text/css">
	.st0{fill:#F1F5F9;}
</style>
<g>
	<path class="st0" d="M10.1,0.5c7.8,1.1,10.3,11.5,3.5,15.8c-5.4,3.4-12-0.1-13-6.2c0-0.7,0-1.4,0-2.1C1.1,4.1,4.2,1.1,8,0.5
		C8.7,0.5,9.4,0.5,10.1,0.5z"/>
	<path class="st0" d="M25.6,24.1c4.7,0,9.4,0,14.1,0c0,2.2,0,4.3,0,6.5c1.1-1,1.7-2.5,2.9-3.4c2.4-2.2,5.6-3.7,8.8-4
		c2-0.3,4.1-0.1,6.2,0c12.5,1.6,14.1,13,13.9,23.6c0,8.3,0,16.5,0,24.8c-4.9,0-9.8,0-14.7,0C56.7,62.3,57,53,56.7,43.8
		c-0.4-2.7-1.1-5.9-3.9-7.2c-3.9-1.7-9.5-0.6-11.2,3.6c-1.5,3.7-1.2,7.7-1.2,11.6c0,6.5,0,13.1,0,19.6c-4.9,0-9.8,0-14.7,0
		C25.6,55.7,25.6,39.9,25.6,24.1z"/>
	<path class="st0" d="M16.3,24.1c0.1,0.1,0.1,0.1,0.2,0.2c0,15.7,0,31.5,0,47.2c-4.9,0-9.8,0-14.8,0c-0.1-0.7-0.2-43.2-0.1-47.2
		c0,0,0.1-0.1,0.2-0.2C6.6,24.1,11.4,24.1,16.3,24.1z"/>
</g>
</svg>
