<?xml version="1.0" encoding="utf-8"?>
<!-- Generator: Adobe Illustrator 26.0.1, SVG Export Plug-In . SVG Version: 6.00 Build 0)  -->
<svg version="1.1" id="Layer_1" xmlns="http://www.w3.org/2000/svg" xmlns:xlink="http://www.w3.org/1999/xlink" x="0px" y="0px"
	 viewBox="0 0 72 72" style="enable-background:new 0 0 72 72;" xml:space="preserve">
<style type="text/css">
	.st0{fill:#F1F5F9;}
</style>
<g>
	<path class="st0" d="M42.5,70.2c-0.2,0.4-0.3,0.6-0.4,0.9c-0.6,0.3-1.2,0.4-2,0.4c-3.9-0.1-7.9,0.2-11.8-0.1
		c-0.3-0.3-0.5-0.6-0.8-0.9c0-9.9,0-19.8,0-29.8c-3.4-0.2-6.9,0.5-10.2-0.4c-0.4-0.5-0.5-1.1-0.5-1.7c0-3.5,0-7,0-10.5
		c0-1.2,0.7-2.2,2-2c2.9,0,5.8,0,8.7,0c0-7.5-0.9-16.4,5.6-21.7c5.9-5.2,13.9-3.6,21.1-3.8c0.3,0.3,0.6,0.6,0.8,0.8
		c0,4,0,7.8,0,11.8c-0.2,0.3-0.5,0.6-0.6,0.8c-12.8,1-12.1-2.3-12,11.9c3.1,0,6.2,0,9.3,0c2.6-0.3,3.3,0.7,3,3.2
		c-0.2,15.1,2.4,10.6-12.3,11.3C42.5,50.4,42.5,60.4,42.5,70.2z"/>
</g>
</svg>
