<?xml version="1.0" encoding="utf-8"?>
<!-- Generator: Adobe Illustrator 26.0.1, SVG Export Plug-In . SVG Version: 6.00 Build 0)  -->
<svg version="1.1" id="Layer_1" xmlns="http://www.w3.org/2000/svg" xmlns:xlink="http://www.w3.org/1999/xlink" x="0px" y="0px"
	 viewBox="0 0 72 72" style="enable-background:new 0 0 72 72;" xml:space="preserve">
<style type="text/css">
	.st0{fill:#F1F5F9;}
</style>
<g>
	<path class="st0" d="M0.5,34.6C2.3,7.4,33.6-8.1,56.1,7.6c17.6,11.5,20.7,38.2,6.1,53.3c-3.2,3.5-7.1,6.3-11.4,8.3
		c-1.7,0.7-5.5,2.9-5.8-0.2c-0.6-5.4,1.7-12.1-2.5-16.5c12.8-0.6,18.6-10.7,15.4-22.6c-0.7-1.6-1.6-3-2.8-4.4c1.1-3,0.9-6.4-0.4-9.3
		c-3.1-0.8-6.9,1.9-9.7,3.5c-4.2-0.8-8.7-1.6-13-0.8c-1.7,0-3.3,0.7-5,0.8c-2.5-1.7-5.3-3.2-8.3-3.6c-1.7-0.5-1.8,1.3-2.1,2.5
		c-0.6,2.3-0.5,4.8,0.4,7c-4.8,5-4.4,13-1.8,18.9c2.5,5.4,8.8,7.7,14.3,8.1c-2.7,2.2-1,5.3-4.4,5.5c-1.5,0.2-3,0.4-4.4-0.2
		c-3.6-1.4-4.1-5.9-8-6.9c-2.8-0.8-3.8,0.6-1,2.2c3.6,2.4,3.5,8.7,8.6,9.1c2.3,0.4,4.6,0.6,6.9,0c-0.5,2.3,1.8,8.6-2,8.4
		C18.9,68.7,13.3,64.9,9,59.9C3,52.9,0.1,43.7,0.5,34.6z"/>
</g>
</svg>
