<?xml version="1.0" encoding="utf-8"?>
<!-- Generator: Adobe Illustrator 26.0.1, SVG Export Plug-In . SVG Version: 6.00 Build 0)  -->
<svg version="1.1" id="Layer_1" xmlns="http://www.w3.org/2000/svg" xmlns:xlink="http://www.w3.org/1999/xlink" x="0px" y="0px"
	 viewBox="0 0 72 72" style="enable-background:new 0 0 72 72;" xml:space="preserve">
<style type="text/css">
	.st0{fill:#545459;}
</style>
<path class="st0" d="M66,71c-1.3,0-2.6-0.5-3.5-1.5l-60-60c-2-2-2-5.1,0-7.1c2-2,5.1-2,7.1,0l60,60c2,2,2,5.1,0,7.1
	C68.6,70.5,67.3,71,66,71z"/>
<path class="st0" d="M6,71c-1.3,0-2.6-0.5-3.5-1.5c-2-2-2-5.1,0-7.1l60-60c2-2,5.1-2,7.1,0c2,2,2,5.1,0,7.1l-60,60
	C8.6,70.5,7.3,71,6,71z"/>
</svg>
