<?xml version="1.0" encoding="utf-8"?>
<!-- Generator: Adobe Illustrator 26.0.1, SVG Export Plug-In . SVG Version: 6.00 Build 0)  -->
<svg version="1.1" id="Layer_1" xmlns="http://www.w3.org/2000/svg" xmlns:xlink="http://www.w3.org/1999/xlink" x="0px" y="0px"
	 viewBox="0 0 160 45" style="enable-background:new 0 0 160 45;" xml:space="preserve">
<style type="text/css">
	.st0{fill:#2563EB;}
	.st1{fill:#64748B;}
	.st2{fill:#1E3A8A;}
	.st3{display:none;}
	.st4{display:inline;fill:#FFFFFF;}
	.st5{display:inline;}
	.st6{fill:#334155;}
	.st7{fill:#F1F5F9;}
</style>
<g>
	<path class="st0" d="M38.6,14.4l-13.7,7.9c-1.1,0.7-1.8,1.9-1.8,3.2v16.8c0,1.7,1.8,2.7,3.3,1.9l11.9-6.9c2.3-1.3,3.6-3.7,3.6-6.3
		V16.3C41.9,14.6,40.1,13.6,38.6,14.4z"/>
	<path class="st0" d="M35.4,7.6L24.8,1.5c-2.3-1.3-5-1.3-7.3,0L7,7.6c-1.5,0.8-1.5,2.9,0,3.8l12.4,7.1c1.1,0.7,2.5,0.7,3.6,0
		l12.4-7.1C36.8,10.5,36.8,8.4,35.4,7.6z"/>
	<path class="st1" d="M17.4,22.3L3.8,14.4c-1.5-0.8-3.3,0.2-3.3,1.9V31c0,2.6,1.4,5,3.6,6.3L16,44.2c1.5,0.8,3.3-0.2,3.3-1.9V25.5
		C19.3,24.2,18.6,23,17.4,22.3z"/>
</g>
<g>
	<g>
		<polygon class="st1" points="64.1,26.3 54.9,11.1 53.1,11.1 53.1,34 55.6,34 55.6,16.5 63.2,29.1 64.9,29.1 72.6,16.5 72.6,34 
			75.1,34 75.1,11.1 73.3,11.1 		"/>
		<path class="st1" d="M91.6,18.4l-5.3,12l-5-12h-2.6L85,32.9l-3.7,7.7h2.6c2-4.2,8.3-17.7,10.4-22.2H91.6z"/>
	</g>
	<g>
		<path class="st2" d="M110.6,21.5c3.7-2.2,3.5-8-0.4-9.9c-1-0.6-2.3-0.9-3.9-0.9h-8.8V34h9.1c1.7,0,3.1-0.3,4.2-0.9
			C115.5,30.7,115.2,23.7,110.6,21.5z M106.1,14.1c1,0,1.8,0.3,2.4,0.8c1.2,0.9,1.2,3.6,0,4.5c-0.6,0.5-1.4,0.8-2.4,0.8h-4.9v-6
			H106.1z M109.4,29.6c-0.6,0.7-1.6,1.1-2.7,1.1h-5.5v-7.2h5.5c0.8,0,1.4,0.2,2,0.5C110.7,25,110.9,27.9,109.4,29.6z"/>
		<rect x="117.6" y="10.1" class="st2" width="3.7" height="23.9"/>
		<path class="st2" d="M136.8,18.8c-5.3-3.2-12.8,0.8-12.6,7.2c-0.2,6.4,7.2,10.4,12.6,7.2C142.2,30.2,142.3,21.7,136.8,18.8z
			 M136.6,28.5c-1.1,2.3-4.3,3-6.4,1.7c-2.2-1.2-2.8-4.5-1.6-6.7c1.1-2.2,4.3-2.9,6.4-1.7C137.2,23.1,137.8,26.3,136.6,28.5z"/>
		<path class="st2" d="M155.3,18v1.7c-4.7-4.8-12.7-0.7-12.4,5.9c-0.3,6.6,7.7,10.8,12.4,5.9v1.7c0.1,5.1-7.5,5.3-9.8,1.8l-2.4,2.4
			c3.2,4.7,11.8,4.7,14.8-0.1c0.7-1.1,1.1-2.5,1.1-4V18H155.3z M153.5,29.6c-2,1.1-5.1,0.6-6.2-1.6c-1.1-2-0.6-5.2,1.6-6.3
			c2-1.1,5.1-0.6,6.2,1.6C156.1,25.3,155.6,28.5,153.5,29.6z"/>
	</g>
</g>
<g class="st3">
	<rect x="1.7" y="57.9" class="st4" width="156.1" height="33.9"/>
	<g class="st5">
		<g>
			<g>
				<path d="M6.5,85.7v-3.4h0.4v3.4H6.5z M6.8,85.7v-0.3h1.1c0.2,0,0.4-0.1,0.5-0.2c0.1-0.1,0.2-0.3,0.2-0.5c0-0.1,0-0.2-0.1-0.3
					c-0.1-0.1-0.1-0.2-0.2-0.2S8,84.1,7.9,84.1H6.8v-0.3h1.1c0.2,0,0.3,0,0.4-0.2c0.1-0.1,0.2-0.2,0.2-0.4c0-0.2-0.1-0.3-0.2-0.4
					c-0.1-0.1-0.3-0.2-0.5-0.2h-1v-0.3h1c0.2,0,0.4,0,0.5,0.1c0.1,0.1,0.3,0.2,0.3,0.3c0.1,0.1,0.1,0.3,0.1,0.4c0,0.2,0,0.4-0.1,0.5
					c-0.1,0.1-0.2,0.2-0.4,0.3l0-0.1c0.2,0.1,0.4,0.2,0.5,0.3S9,84.5,9,84.8c0,0.2,0,0.3-0.1,0.5c-0.1,0.1-0.2,0.3-0.4,0.3
					c-0.2,0.1-0.4,0.1-0.6,0.1H6.8z"/>
				<path d="M9.6,85.7v-3.5h0.4v3.5H9.6z"/>
				<path d="M11.6,85.8c-0.2,0-0.4,0-0.5-0.1c-0.2-0.1-0.3-0.2-0.4-0.4c-0.1-0.2-0.1-0.3-0.1-0.5v-1.4h0.4v1.3c0,0.1,0,0.3,0.1,0.4
					s0.1,0.2,0.2,0.2s0.2,0.1,0.3,0.1c0.2,0,0.4-0.1,0.5-0.2c0.1-0.1,0.2-0.3,0.2-0.5v-1.3h0.4v1.4c0,0.2,0,0.4-0.1,0.5
					c-0.1,0.2-0.2,0.3-0.3,0.4C11.9,85.7,11.8,85.8,11.6,85.8z"/>
				<path d="M14.3,85.8c-0.2,0-0.4-0.1-0.6-0.2c-0.2-0.1-0.3-0.3-0.4-0.4s-0.2-0.4-0.2-0.6c0-0.2,0.1-0.4,0.2-0.6
					c0.1-0.2,0.2-0.3,0.4-0.4c0.2-0.1,0.4-0.2,0.6-0.2c0.2,0,0.4,0,0.6,0.1s0.3,0.2,0.4,0.4c0.1,0.2,0.1,0.4,0.1,0.6
					c0,0,0,0.1,0,0.1c0,0,0,0.1,0,0.1h-2v-0.3h1.8L15,84.5c0-0.2,0-0.3-0.1-0.4c-0.1-0.1-0.1-0.2-0.3-0.3c-0.1-0.1-0.3-0.1-0.4-0.1
					c-0.2,0-0.3,0-0.4,0.1c-0.1,0.1-0.2,0.2-0.3,0.3c-0.1,0.1-0.1,0.3-0.1,0.5c0,0.2,0,0.3,0.1,0.5c0.1,0.1,0.2,0.2,0.3,0.3
					c0.1,0.1,0.3,0.1,0.5,0.1c0.1,0,0.3,0,0.4-0.1s0.2-0.1,0.3-0.2l0.2,0.2c-0.1,0.1-0.2,0.2-0.4,0.3C14.7,85.7,14.5,85.8,14.3,85.8
					z"/>
				<path d="M15.9,84.6v-0.3h1.6v0.3H15.9z"/>
				<path d="M19.3,85.8c-0.2,0-0.4-0.1-0.6-0.2c-0.2-0.1-0.3-0.2-0.4-0.4s-0.2-0.4-0.2-0.6c0-0.3,0.1-0.6,0.3-0.9l1.1-1.5h0.4
					l-1.1,1.4l-0.1,0.1c0-0.1,0.1-0.1,0.2-0.2c0.1,0,0.1-0.1,0.2-0.1c0.1,0,0.2,0,0.3,0c0.2,0,0.4,0,0.6,0.1
					c0.2,0.1,0.3,0.2,0.4,0.4c0.1,0.2,0.1,0.4,0.1,0.6s-0.1,0.4-0.2,0.6c-0.1,0.2-0.2,0.3-0.4,0.4C19.7,85.7,19.5,85.8,19.3,85.8z
					 M19.3,85.4c0.2,0,0.3,0,0.4-0.1c0.1-0.1,0.2-0.2,0.3-0.3c0.1-0.1,0.1-0.3,0.1-0.4c0-0.2,0-0.3-0.1-0.4
					c-0.1-0.1-0.2-0.2-0.3-0.3c-0.1-0.1-0.3-0.1-0.4-0.1c-0.2,0-0.3,0-0.4,0.1c-0.1,0.1-0.2,0.2-0.3,0.3c-0.1,0.1-0.1,0.3-0.1,0.4
					c0,0.2,0,0.3,0.1,0.4c0.1,0.1,0.2,0.2,0.3,0.3C19,85.4,19.1,85.4,19.3,85.4z"/>
				<path d="M22.3,85.8c-0.3,0-0.5-0.1-0.7-0.2c-0.2-0.1-0.4-0.4-0.5-0.6s-0.2-0.6-0.2-0.9c0-0.4,0.1-0.7,0.2-0.9
					c0.1-0.3,0.3-0.5,0.5-0.6c0.2-0.1,0.4-0.2,0.7-0.2c0.3,0,0.5,0.1,0.7,0.2c0.2,0.1,0.4,0.3,0.5,0.6c0.1,0.3,0.2,0.6,0.2,0.9
					c0,0.4-0.1,0.7-0.2,0.9s-0.3,0.5-0.5,0.6C22.8,85.7,22.6,85.8,22.3,85.8z M22.3,85.4c0.2,0,0.4-0.1,0.5-0.2
					c0.1-0.1,0.3-0.3,0.4-0.5s0.1-0.5,0.1-0.8c0-0.3,0-0.6-0.1-0.8c-0.1-0.2-0.2-0.4-0.4-0.5c-0.2-0.1-0.3-0.2-0.5-0.2
					s-0.4,0.1-0.5,0.2c-0.2,0.1-0.3,0.3-0.4,0.5c-0.1,0.2-0.1,0.5-0.1,0.8c0,0.3,0,0.6,0.1,0.8c0.1,0.2,0.2,0.4,0.4,0.5
					C22,85.4,22.1,85.4,22.3,85.4z"/>
				<path d="M25.6,85.8c-0.3,0-0.5-0.1-0.7-0.2c-0.2-0.1-0.4-0.4-0.5-0.6s-0.2-0.6-0.2-0.9c0-0.4,0.1-0.7,0.2-0.9
					c0.1-0.3,0.3-0.5,0.5-0.6c0.2-0.1,0.4-0.2,0.7-0.2c0.3,0,0.5,0.1,0.7,0.2c0.2,0.1,0.4,0.3,0.5,0.6c0.1,0.3,0.2,0.6,0.2,0.9
					c0,0.4-0.1,0.7-0.2,0.9s-0.3,0.5-0.5,0.6C26.1,85.7,25.9,85.8,25.6,85.8z M25.6,85.4c0.2,0,0.4-0.1,0.5-0.2
					c0.1-0.1,0.3-0.3,0.4-0.5s0.1-0.5,0.1-0.8c0-0.3,0-0.6-0.1-0.8c-0.1-0.2-0.2-0.4-0.4-0.5c-0.2-0.1-0.3-0.2-0.5-0.2
					s-0.4,0.1-0.5,0.2c-0.2,0.1-0.3,0.3-0.4,0.5c-0.1,0.2-0.1,0.5-0.1,0.8c0,0.3,0,0.6,0.1,0.8c0.1,0.2,0.2,0.4,0.4,0.5
					C25.2,85.4,25.4,85.4,25.6,85.4z"/>
			</g>
		</g>
		<rect x="9.6" y="62.9" class="st0" width="14.1" height="14.1"/>
	</g>
	<g class="st5">
		<g>
			<g>
				<path d="M37.7,85.7v-3.4h0.4v3.4H37.7z M37.9,85.7v-0.3H39c0.2,0,0.4-0.1,0.5-0.2c0.1-0.1,0.2-0.3,0.2-0.5c0-0.1,0-0.2-0.1-0.3
					c-0.1-0.1-0.1-0.2-0.2-0.2s-0.2-0.1-0.4-0.1h-1.1v-0.3H39c0.2,0,0.3,0,0.4-0.2c0.1-0.1,0.2-0.2,0.2-0.4c0-0.2-0.1-0.3-0.2-0.4
					c-0.1-0.1-0.3-0.2-0.5-0.2h-1v-0.3h1c0.2,0,0.4,0,0.5,0.1c0.1,0.1,0.3,0.2,0.3,0.3c0.1,0.1,0.1,0.3,0.1,0.4c0,0.2,0,0.4-0.1,0.5
					c-0.1,0.1-0.2,0.2-0.4,0.3l0-0.1c0.2,0.1,0.4,0.2,0.5,0.3s0.2,0.4,0.2,0.6c0,0.2,0,0.3-0.1,0.5c-0.1,0.1-0.2,0.3-0.4,0.3
					c-0.2,0.1-0.4,0.1-0.6,0.1H37.9z"/>
				<path d="M40.7,85.7v-3.5h0.4v3.5H40.7z"/>
				<path d="M42.7,85.8c-0.2,0-0.4,0-0.5-0.1c-0.2-0.1-0.3-0.2-0.4-0.4c-0.1-0.2-0.1-0.3-0.1-0.5v-1.4h0.4v1.3c0,0.1,0,0.3,0.1,0.4
					s0.1,0.2,0.2,0.2s0.2,0.1,0.3,0.1c0.2,0,0.4-0.1,0.5-0.2c0.1-0.1,0.2-0.3,0.2-0.5v-1.3h0.4v1.4c0,0.2,0,0.4-0.1,0.5
					c-0.1,0.2-0.2,0.3-0.3,0.4C43.1,85.7,42.9,85.8,42.7,85.8z"/>
				<path d="M45.4,85.8c-0.2,0-0.4-0.1-0.6-0.2c-0.2-0.1-0.3-0.3-0.4-0.4s-0.2-0.4-0.2-0.6c0-0.2,0.1-0.4,0.2-0.6
					c0.1-0.2,0.2-0.3,0.4-0.4c0.2-0.1,0.4-0.2,0.6-0.2c0.2,0,0.4,0,0.6,0.1s0.3,0.2,0.4,0.4c0.1,0.2,0.1,0.4,0.1,0.6
					c0,0,0,0.1,0,0.1c0,0,0,0.1,0,0.1h-2v-0.3h1.8l-0.1,0.1c0-0.2,0-0.3-0.1-0.4c-0.1-0.1-0.1-0.2-0.3-0.3c-0.1-0.1-0.3-0.1-0.4-0.1
					c-0.2,0-0.3,0-0.4,0.1c-0.1,0.1-0.2,0.2-0.3,0.3c-0.1,0.1-0.1,0.3-0.1,0.5c0,0.2,0,0.3,0.1,0.5c0.1,0.1,0.2,0.2,0.3,0.3
					c0.1,0.1,0.3,0.1,0.5,0.1c0.1,0,0.3,0,0.4-0.1s0.2-0.1,0.3-0.2l0.2,0.2c-0.1,0.1-0.2,0.2-0.4,0.3C45.8,85.7,45.6,85.8,45.4,85.8
					z"/>
				<path d="M47,84.6v-0.3h1.6v0.3H47z"/>
				<path d="M49.8,85.7l1.1-1.4l0.1,0c0,0.1-0.1,0.1-0.2,0.2c-0.1,0-0.1,0.1-0.2,0.1s-0.2,0-0.3,0c-0.2,0-0.4,0-0.6-0.1
					c-0.2-0.1-0.3-0.2-0.4-0.4s-0.1-0.4-0.1-0.6c0-0.2,0.1-0.4,0.2-0.6c0.1-0.2,0.2-0.3,0.4-0.4c0.2-0.1,0.4-0.2,0.6-0.2
					c0.2,0,0.4,0.1,0.6,0.2s0.3,0.2,0.4,0.4s0.2,0.4,0.2,0.6c0,0.3-0.1,0.6-0.3,0.9l-1.1,1.5H49.8z M50.4,84.3c0.2,0,0.3,0,0.4-0.1
					s0.2-0.2,0.3-0.3c0.1-0.1,0.1-0.3,0.1-0.4c0-0.2,0-0.3-0.1-0.4c-0.1-0.1-0.2-0.2-0.3-0.3s-0.3-0.1-0.4-0.1c-0.2,0-0.3,0-0.4,0.1
					c-0.1,0.1-0.2,0.2-0.3,0.3c-0.1,0.1-0.1,0.3-0.1,0.4c0,0.2,0,0.3,0.1,0.4c0.1,0.1,0.2,0.2,0.3,0.3
					C50.1,84.2,50.3,84.3,50.4,84.3z"/>
				<path d="M53.5,85.8c-0.3,0-0.5-0.1-0.7-0.2c-0.2-0.1-0.4-0.4-0.5-0.6s-0.2-0.6-0.2-0.9c0-0.4,0.1-0.7,0.2-0.9
					c0.1-0.3,0.3-0.5,0.5-0.6c0.2-0.1,0.4-0.2,0.7-0.2c0.3,0,0.5,0.1,0.7,0.2c0.2,0.1,0.4,0.3,0.5,0.6c0.1,0.3,0.2,0.6,0.2,0.9
					c0,0.4-0.1,0.7-0.2,0.9s-0.3,0.5-0.5,0.6C54,85.7,53.7,85.8,53.5,85.8z M53.5,85.4c0.2,0,0.4-0.1,0.5-0.2
					c0.1-0.1,0.3-0.3,0.4-0.5s0.1-0.5,0.1-0.8c0-0.3,0-0.6-0.1-0.8c-0.1-0.2-0.2-0.4-0.4-0.5c-0.2-0.1-0.3-0.2-0.5-0.2
					s-0.4,0.1-0.5,0.2c-0.2,0.1-0.3,0.3-0.4,0.5c-0.1,0.2-0.1,0.5-0.1,0.8c0,0.3,0,0.6,0.1,0.8c0.1,0.2,0.2,0.4,0.4,0.5
					C53.1,85.4,53.3,85.4,53.5,85.4z"/>
				<path d="M56.8,85.8c-0.3,0-0.5-0.1-0.7-0.2c-0.2-0.1-0.4-0.4-0.5-0.6s-0.2-0.6-0.2-0.9c0-0.4,0.1-0.7,0.2-0.9
					c0.1-0.3,0.3-0.5,0.5-0.6c0.2-0.1,0.4-0.2,0.7-0.2c0.3,0,0.5,0.1,0.7,0.2c0.2,0.1,0.4,0.3,0.5,0.6c0.1,0.3,0.2,0.6,0.2,0.9
					c0,0.4-0.1,0.7-0.2,0.9s-0.3,0.5-0.5,0.6C57.2,85.7,57,85.8,56.8,85.8z M56.8,85.4c0.2,0,0.4-0.1,0.5-0.2
					c0.1-0.1,0.3-0.3,0.4-0.5s0.1-0.5,0.1-0.8c0-0.3,0-0.6-0.1-0.8c-0.1-0.2-0.2-0.4-0.4-0.5c-0.2-0.1-0.3-0.2-0.5-0.2
					s-0.4,0.1-0.5,0.2c-0.2,0.1-0.3,0.3-0.4,0.5c-0.1,0.2-0.1,0.5-0.1,0.8c0,0.3,0,0.6,0.1,0.8c0.1,0.2,0.2,0.4,0.4,0.5
					C56.4,85.4,56.6,85.4,56.8,85.4z"/>
			</g>
		</g>
		<rect x="40.8" y="62.9" class="st2" width="14.1" height="14.1"/>
	</g>
	<g class="st5">
		<g>
			<g>
				<path d="M69.7,85.8c-0.3,0-0.5,0-0.7-0.1c-0.2-0.1-0.4-0.2-0.5-0.4l0.3-0.2c0.1,0.2,0.3,0.3,0.4,0.4c0.2,0.1,0.3,0.1,0.6,0.1
					c0.2,0,0.4,0,0.5-0.2c0.1-0.1,0.2-0.2,0.2-0.4c0-0.1,0-0.2-0.1-0.3c-0.1-0.1-0.1-0.2-0.2-0.2c-0.1-0.1-0.2-0.1-0.3-0.1
					c-0.1,0-0.2-0.1-0.4-0.1c-0.1,0-0.2-0.1-0.3-0.2c-0.1-0.1-0.2-0.2-0.2-0.3c-0.1-0.1-0.1-0.3-0.1-0.4c0-0.2,0-0.3,0.1-0.5
					c0.1-0.1,0.2-0.2,0.4-0.3c0.2-0.1,0.3-0.1,0.5-0.1c0.2,0,0.4,0,0.6,0.1c0.2,0.1,0.3,0.2,0.4,0.4L70.6,83
					c-0.1-0.1-0.2-0.2-0.4-0.3c-0.1-0.1-0.3-0.1-0.4-0.1c-0.2,0-0.4,0-0.5,0.1c-0.1,0.1-0.2,0.2-0.2,0.4c0,0.1,0,0.2,0.1,0.3
					c0.1,0.1,0.1,0.1,0.2,0.2c0.1,0.1,0.2,0.1,0.3,0.1c0.1,0,0.2,0.1,0.4,0.1s0.2,0.1,0.3,0.2c0.1,0.1,0.2,0.2,0.2,0.3
					s0.1,0.3,0.1,0.5c0,0.3-0.1,0.5-0.3,0.7S70.1,85.8,69.7,85.8z"/>
				<path d="M71.5,85.7v-3.5h0.4v3.5H71.5z"/>
				<path d="M73.6,85.8c-0.2,0-0.4-0.1-0.6-0.2s-0.3-0.3-0.4-0.4s-0.2-0.4-0.2-0.6c0-0.2,0.1-0.4,0.2-0.6c0.1-0.2,0.2-0.3,0.4-0.4
					s0.4-0.2,0.6-0.2c0.2,0,0.3,0,0.5,0.1c0.1,0.1,0.3,0.2,0.3,0.3c0.1,0.1,0.1,0.3,0.2,0.4v0.7c0,0.2-0.1,0.3-0.2,0.4
					s-0.2,0.2-0.3,0.3S73.7,85.8,73.6,85.8z M73.6,85.4c0.2,0,0.4-0.1,0.6-0.2c0.1-0.2,0.2-0.4,0.2-0.6c0-0.2,0-0.3-0.1-0.5
					c-0.1-0.1-0.2-0.2-0.3-0.3c-0.1-0.1-0.3-0.1-0.4-0.1c-0.2,0-0.3,0-0.4,0.1c-0.1,0.1-0.2,0.2-0.3,0.3c-0.1,0.1-0.1,0.3-0.1,0.5
					c0,0.2,0,0.3,0.1,0.5c0.1,0.1,0.2,0.2,0.3,0.3C73.3,85.4,73.4,85.4,73.6,85.4z M74.4,85.7v-0.6l0.1-0.6L74.4,84v-0.6h0.4v2.3
					H74.4z"/>
				<path d="M75.2,83.7v-0.3h1.5v0.3H75.2z M75.8,85.7v-3.3h0.4v3.3H75.8z"/>
				<path d="M78.3,85.8c-0.2,0-0.4-0.1-0.6-0.2c-0.2-0.1-0.3-0.3-0.4-0.4s-0.2-0.4-0.2-0.6c0-0.2,0.1-0.4,0.2-0.6
					c0.1-0.2,0.2-0.3,0.4-0.4c0.2-0.1,0.4-0.2,0.6-0.2c0.2,0,0.4,0,0.6,0.1s0.3,0.2,0.4,0.4c0.1,0.2,0.1,0.4,0.1,0.6
					c0,0,0,0.1,0,0.1c0,0,0,0.1,0,0.1h-2v-0.3h1.8L79,84.5c0-0.2,0-0.3-0.1-0.4c-0.1-0.1-0.1-0.2-0.3-0.3c-0.1-0.1-0.3-0.1-0.4-0.1
					c-0.2,0-0.3,0-0.4,0.1c-0.1,0.1-0.2,0.2-0.3,0.3c-0.1,0.1-0.1,0.3-0.1,0.5c0,0.2,0,0.3,0.1,0.5c0.1,0.1,0.2,0.2,0.3,0.3
					c0.1,0.1,0.3,0.1,0.5,0.1c0.1,0,0.3,0,0.4-0.1s0.2-0.1,0.3-0.2l0.2,0.2c-0.1,0.1-0.2,0.2-0.4,0.3C78.7,85.7,78.5,85.8,78.3,85.8
					z"/>
				<path d="M79.9,84.6v-0.3h1.6v0.3H79.9z"/>
				<path d="M83.1,85.8c-0.2,0-0.4,0-0.6-0.1s-0.3-0.2-0.5-0.4l0.2-0.2c0.1,0.1,0.2,0.2,0.3,0.3c0.1,0.1,0.3,0.1,0.5,0.1
					c0.2,0,0.3,0,0.4-0.1c0.1-0.1,0.2-0.2,0.3-0.3c0.1-0.1,0.1-0.3,0.1-0.4c0-0.2,0-0.3-0.1-0.4c-0.1-0.1-0.2-0.2-0.3-0.3
					c-0.1-0.1-0.3-0.1-0.4-0.1c-0.1,0-0.3,0-0.4,0.1s-0.2,0.1-0.3,0.2l0-0.2c0.1-0.1,0.1-0.1,0.2-0.2c0.1,0,0.2-0.1,0.3-0.1
					c0.1,0,0.2,0,0.3,0c0.2,0,0.4,0,0.6,0.1c0.2,0.1,0.3,0.2,0.4,0.4c0.1,0.2,0.1,0.4,0.1,0.6c0,0.2-0.1,0.4-0.2,0.6
					c-0.1,0.2-0.2,0.3-0.4,0.4C83.6,85.7,83.4,85.8,83.1,85.8z M82.4,84.1l-0.2-0.2l0.2-1.6h0.3l-0.2,1.6L82.4,84.1z M82.5,82.6
					l-0.1-0.3h1.8v0.3H82.5z"/>
				<path d="M86.2,85.8c-0.3,0-0.5-0.1-0.7-0.2c-0.2-0.1-0.4-0.4-0.5-0.6s-0.2-0.6-0.2-0.9c0-0.4,0.1-0.7,0.2-0.9
					c0.1-0.3,0.3-0.5,0.5-0.6c0.2-0.1,0.4-0.2,0.7-0.2c0.3,0,0.5,0.1,0.7,0.2c0.2,0.1,0.4,0.3,0.5,0.6c0.1,0.3,0.2,0.6,0.2,0.9
					c0,0.4-0.1,0.7-0.2,0.9c-0.1,0.3-0.3,0.5-0.5,0.6S86.5,85.8,86.2,85.8z M86.2,85.4c0.2,0,0.4-0.1,0.5-0.2
					c0.1-0.1,0.3-0.3,0.4-0.5c0.1-0.2,0.1-0.5,0.1-0.8c0-0.3,0-0.6-0.1-0.8c-0.1-0.2-0.2-0.4-0.4-0.5c-0.2-0.1-0.3-0.2-0.5-0.2
					s-0.4,0.1-0.5,0.2c-0.2,0.1-0.3,0.3-0.4,0.5c-0.1,0.2-0.1,0.5-0.1,0.8c0,0.3,0,0.6,0.1,0.8s0.2,0.4,0.4,0.5
					C85.8,85.4,86,85.4,86.2,85.4z"/>
				<path d="M89.5,85.8c-0.3,0-0.5-0.1-0.7-0.2c-0.2-0.1-0.4-0.4-0.5-0.6s-0.2-0.6-0.2-0.9c0-0.4,0.1-0.7,0.2-0.9s0.3-0.5,0.5-0.6
					c0.2-0.1,0.4-0.2,0.7-0.2c0.3,0,0.5,0.1,0.7,0.2c0.2,0.1,0.4,0.3,0.5,0.6c0.1,0.3,0.2,0.6,0.2,0.9c0,0.4-0.1,0.7-0.2,0.9
					c-0.1,0.3-0.3,0.5-0.5,0.6C90,85.7,89.8,85.8,89.5,85.8z M89.5,85.4c0.2,0,0.4-0.1,0.5-0.2c0.2-0.1,0.3-0.3,0.4-0.5
					c0.1-0.2,0.1-0.5,0.1-0.8c0-0.3,0-0.6-0.1-0.8c-0.1-0.2-0.2-0.4-0.4-0.5c-0.2-0.1-0.3-0.2-0.5-0.2s-0.4,0.1-0.5,0.2
					c-0.2,0.1-0.3,0.3-0.4,0.5c-0.1,0.2-0.1,0.5-0.1,0.8c0,0.3,0,0.6,0.1,0.8c0.1,0.2,0.2,0.4,0.4,0.5
					C89.1,85.4,89.3,85.4,89.5,85.4z"/>
			</g>
		</g>
		<rect x="72.7" y="62.9" class="st1" width="14.1" height="14.1"/>
	</g>
	<g class="st5">
		<g>
			<g>
				<path d="M102.2,85.8c-0.3,0-0.5,0-0.7-0.1c-0.2-0.1-0.4-0.2-0.5-0.4l0.3-0.2c0.1,0.2,0.3,0.3,0.4,0.4s0.3,0.1,0.6,0.1
					c0.2,0,0.4,0,0.5-0.2c0.1-0.1,0.2-0.2,0.2-0.4c0-0.1,0-0.2-0.1-0.3c-0.1-0.1-0.1-0.2-0.2-0.2c-0.1-0.1-0.2-0.1-0.3-0.1
					c-0.1,0-0.2-0.1-0.4-0.1c-0.1,0-0.2-0.1-0.3-0.2c-0.1-0.1-0.2-0.2-0.2-0.3c-0.1-0.1-0.1-0.3-0.1-0.4c0-0.2,0-0.3,0.1-0.5
					c0.1-0.1,0.2-0.2,0.4-0.3c0.2-0.1,0.3-0.1,0.5-0.1c0.2,0,0.4,0,0.6,0.1c0.2,0.1,0.3,0.2,0.4,0.4L103,83
					c-0.1-0.1-0.2-0.2-0.3-0.3c-0.1-0.1-0.3-0.1-0.4-0.1c-0.2,0-0.4,0-0.5,0.1c-0.1,0.1-0.2,0.2-0.2,0.4c0,0.1,0,0.2,0.1,0.3
					s0.1,0.1,0.2,0.2c0.1,0.1,0.2,0.1,0.3,0.1c0.1,0,0.2,0.1,0.4,0.1c0.1,0,0.2,0.1,0.3,0.2c0.1,0.1,0.2,0.2,0.2,0.3
					s0.1,0.3,0.1,0.5c0,0.3-0.1,0.5-0.3,0.7C102.8,85.7,102.5,85.8,102.2,85.8z"/>
				<path d="M103.9,85.7v-3.5h0.4v3.5H103.9z"/>
				<path d="M106,85.8c-0.2,0-0.4-0.1-0.6-0.2s-0.3-0.3-0.4-0.4s-0.2-0.4-0.2-0.6c0-0.2,0.1-0.4,0.2-0.6c0.1-0.2,0.2-0.3,0.4-0.4
					s0.4-0.2,0.6-0.2c0.2,0,0.3,0,0.5,0.1c0.1,0.1,0.3,0.2,0.3,0.3c0.1,0.1,0.1,0.3,0.2,0.4v0.7c0,0.2-0.1,0.3-0.2,0.4
					c-0.1,0.1-0.2,0.2-0.3,0.3C106.3,85.7,106.2,85.8,106,85.8z M106,85.4c0.2,0,0.4-0.1,0.6-0.2c0.1-0.2,0.2-0.4,0.2-0.6
					c0-0.2,0-0.3-0.1-0.5c-0.1-0.1-0.2-0.2-0.3-0.3c-0.1-0.1-0.3-0.1-0.4-0.1c-0.2,0-0.3,0-0.4,0.1c-0.1,0.1-0.2,0.2-0.3,0.3
					c-0.1,0.1-0.1,0.3-0.1,0.5c0,0.2,0,0.3,0.1,0.5c0.1,0.1,0.2,0.2,0.3,0.3C105.7,85.4,105.9,85.4,106,85.4z M106.8,85.7v-0.6
					l0.1-0.6l-0.1-0.6v-0.6h0.4v2.3H106.8z"/>
				<path d="M107.7,83.7v-0.3h1.5v0.3H107.7z M108.3,85.7v-3.3h0.4v3.3H108.3z"/>
				<path d="M110.8,85.8c-0.2,0-0.4-0.1-0.6-0.2c-0.2-0.1-0.3-0.3-0.4-0.4s-0.2-0.4-0.2-0.6c0-0.2,0.1-0.4,0.2-0.6
					c0.1-0.2,0.2-0.3,0.4-0.4c0.2-0.1,0.4-0.2,0.6-0.2c0.2,0,0.4,0,0.6,0.1s0.3,0.2,0.4,0.4s0.1,0.4,0.1,0.6c0,0,0,0.1,0,0.1
					c0,0,0,0.1,0,0.1h-2v-0.3h1.8l-0.1,0.1c0-0.2,0-0.3-0.1-0.4s-0.1-0.2-0.3-0.3c-0.1-0.1-0.3-0.1-0.4-0.1c-0.2,0-0.3,0-0.4,0.1
					c-0.1,0.1-0.2,0.2-0.3,0.3s-0.1,0.3-0.1,0.5c0,0.2,0,0.3,0.1,0.5s0.2,0.2,0.3,0.3c0.1,0.1,0.3,0.1,0.5,0.1c0.1,0,0.3,0,0.4-0.1
					s0.2-0.1,0.3-0.2l0.2,0.2c-0.1,0.1-0.2,0.2-0.4,0.3C111.1,85.7,110.9,85.8,110.8,85.8z"/>
				<path d="M112.4,84.6v-0.3h1.6v0.3H112.4z"/>
				<path d="M114.5,82.6v-0.3h2.3v0.2l-0.2,0.1H114.5z M115.1,85.7l1.3-3.2l0.4,0l-1.3,3.2H115.1z"/>
				<path d="M118.6,85.8c-0.3,0-0.5-0.1-0.7-0.2c-0.2-0.1-0.4-0.4-0.5-0.6s-0.2-0.6-0.2-0.9c0-0.4,0.1-0.7,0.2-0.9
					c0.1-0.3,0.3-0.5,0.5-0.6c0.2-0.1,0.4-0.2,0.7-0.2c0.3,0,0.5,0.1,0.7,0.2c0.2,0.1,0.4,0.3,0.5,0.6c0.1,0.3,0.2,0.6,0.2,0.9
					c0,0.4-0.1,0.7-0.2,0.9c-0.1,0.3-0.3,0.5-0.5,0.6S118.9,85.8,118.6,85.8z M118.6,85.4c0.2,0,0.4-0.1,0.5-0.2
					c0.1-0.1,0.3-0.3,0.4-0.5c0.1-0.2,0.1-0.5,0.1-0.8c0-0.3,0-0.6-0.1-0.8c-0.1-0.2-0.2-0.4-0.4-0.5c-0.2-0.1-0.3-0.2-0.5-0.2
					s-0.4,0.1-0.5,0.2c-0.2,0.1-0.3,0.3-0.4,0.5c-0.1,0.2-0.1,0.5-0.1,0.8c0,0.3,0,0.6,0.1,0.8s0.2,0.4,0.4,0.5
					C118.2,85.4,118.4,85.4,118.6,85.4z"/>
				<path d="M121.9,85.8c-0.3,0-0.5-0.1-0.7-0.2c-0.2-0.1-0.4-0.4-0.5-0.6s-0.2-0.6-0.2-0.9c0-0.4,0.1-0.7,0.2-0.9
					c0.1-0.3,0.3-0.5,0.5-0.6c0.2-0.1,0.4-0.2,0.7-0.2c0.3,0,0.5,0.1,0.7,0.2c0.2,0.1,0.4,0.3,0.5,0.6c0.1,0.3,0.2,0.6,0.2,0.9
					c0,0.4-0.1,0.7-0.2,0.9c-0.1,0.3-0.3,0.5-0.5,0.6S122.1,85.8,121.9,85.8z M121.9,85.4c0.2,0,0.4-0.1,0.5-0.2
					c0.1-0.1,0.3-0.3,0.4-0.5c0.1-0.2,0.1-0.5,0.1-0.8c0-0.3,0-0.6-0.1-0.8c-0.1-0.2-0.2-0.4-0.4-0.5c-0.2-0.1-0.3-0.2-0.5-0.2
					s-0.4,0.1-0.5,0.2c-0.2,0.1-0.3,0.3-0.4,0.5c-0.1,0.2-0.1,0.5-0.1,0.8c0,0.3,0,0.6,0.1,0.8s0.2,0.4,0.4,0.5
					C121.5,85.4,121.7,85.4,121.9,85.4z"/>
			</g>
		</g>
		<rect x="105.1" y="62.9" class="st6" width="14.1" height="14.1"/>
	</g>
	<g class="st5">
		<g>
			<g>
				<path d="M134.4,85.8c-0.3,0-0.5,0-0.7-0.1c-0.2-0.1-0.4-0.2-0.5-0.4l0.3-0.2c0.1,0.2,0.3,0.3,0.4,0.4c0.2,0.1,0.3,0.1,0.6,0.1
					c0.2,0,0.4,0,0.5-0.2c0.1-0.1,0.2-0.2,0.2-0.4c0-0.1,0-0.2-0.1-0.3c-0.1-0.1-0.1-0.2-0.2-0.2c-0.1-0.1-0.2-0.1-0.3-0.1
					c-0.1,0-0.2-0.1-0.4-0.1c-0.1,0-0.2-0.1-0.3-0.2c-0.1-0.1-0.2-0.2-0.2-0.3c-0.1-0.1-0.1-0.3-0.1-0.4c0-0.2,0-0.3,0.1-0.5
					c0.1-0.1,0.2-0.2,0.4-0.3c0.2-0.1,0.3-0.1,0.5-0.1c0.2,0,0.4,0,0.6,0.1c0.2,0.1,0.3,0.2,0.4,0.4l-0.3,0.3
					c-0.1-0.1-0.2-0.2-0.4-0.3c-0.1-0.1-0.3-0.1-0.4-0.1c-0.2,0-0.4,0-0.5,0.1c-0.1,0.1-0.2,0.2-0.2,0.4c0,0.1,0,0.2,0.1,0.3
					c0.1,0.1,0.1,0.1,0.2,0.2c0.1,0.1,0.2,0.1,0.3,0.1c0.1,0,0.2,0.1,0.4,0.1c0.1,0,0.2,0.1,0.3,0.2c0.1,0.1,0.2,0.2,0.2,0.3
					s0.1,0.3,0.1,0.5c0,0.3-0.1,0.5-0.3,0.7C135,85.7,134.8,85.8,134.4,85.8z"/>
				<path d="M136.2,85.7v-3.5h0.4v3.5H136.2z"/>
				<path d="M138.2,85.8c-0.2,0-0.4-0.1-0.6-0.2s-0.3-0.3-0.4-0.4s-0.2-0.4-0.2-0.6c0-0.2,0.1-0.4,0.2-0.6c0.1-0.2,0.2-0.3,0.4-0.4
					s0.4-0.2,0.6-0.2c0.2,0,0.3,0,0.5,0.1c0.1,0.1,0.3,0.2,0.3,0.3c0.1,0.1,0.1,0.3,0.2,0.4v0.7c0,0.2-0.1,0.3-0.2,0.4
					c-0.1,0.1-0.2,0.2-0.3,0.3C138.6,85.7,138.4,85.8,138.2,85.8z M138.3,85.4c0.2,0,0.4-0.1,0.6-0.2c0.1-0.2,0.2-0.4,0.2-0.6
					c0-0.2,0-0.3-0.1-0.5c-0.1-0.1-0.2-0.2-0.3-0.3c-0.1-0.1-0.3-0.1-0.4-0.1s-0.3,0-0.4,0.1c-0.1,0.1-0.2,0.2-0.3,0.3
					c-0.1,0.1-0.1,0.3-0.1,0.5c0,0.2,0,0.3,0.1,0.5c0.1,0.1,0.2,0.2,0.3,0.3C138,85.4,138.1,85.4,138.3,85.4z M139.1,85.7v-0.6
					l0.1-0.6l-0.1-0.6v-0.6h0.4v2.3H139.1z"/>
				<path d="M139.9,83.7v-0.3h1.5v0.3H139.9z M140.5,85.7v-3.3h0.4v3.3H140.5z"/>
				<path d="M143,85.8c-0.2,0-0.4-0.1-0.6-0.2c-0.2-0.1-0.3-0.3-0.4-0.4s-0.2-0.4-0.2-0.6c0-0.2,0.1-0.4,0.2-0.6
					c0.1-0.2,0.2-0.3,0.4-0.4c0.2-0.1,0.4-0.2,0.6-0.2c0.2,0,0.4,0,0.6,0.1s0.3,0.2,0.4,0.4c0.1,0.2,0.1,0.4,0.1,0.6
					c0,0,0,0.1,0,0.1c0,0,0,0.1,0,0.1h-2v-0.3h1.8l-0.1,0.1c0-0.2,0-0.3-0.1-0.4c-0.1-0.1-0.2-0.2-0.3-0.3c-0.1-0.1-0.3-0.1-0.4-0.1
					c-0.2,0-0.3,0-0.4,0.1c-0.1,0.1-0.2,0.2-0.3,0.3c-0.1,0.1-0.1,0.3-0.1,0.5c0,0.2,0,0.3,0.1,0.5c0.1,0.1,0.2,0.2,0.3,0.3
					c0.1,0.1,0.3,0.1,0.5,0.1c0.1,0,0.3,0,0.4-0.1s0.2-0.1,0.3-0.2l0.2,0.2c-0.1,0.1-0.2,0.2-0.4,0.3
					C143.4,85.7,143.2,85.8,143,85.8z"/>
				<path d="M144.6,84.6v-0.3h1.6v0.3H144.6z"/>
				<path d="M146.7,82.6v-0.3h1v0.3H146.7z M147.5,85.7v-3.4h0.4v3.4H147.5z"/>
				<path d="M149.9,85.8c-0.3,0-0.5-0.1-0.7-0.2c-0.2-0.1-0.4-0.4-0.5-0.6s-0.2-0.6-0.2-0.9c0-0.4,0.1-0.7,0.2-0.9
					c0.1-0.3,0.3-0.5,0.5-0.6c0.2-0.1,0.4-0.2,0.7-0.2c0.3,0,0.5,0.1,0.7,0.2c0.2,0.1,0.4,0.3,0.5,0.6c0.1,0.3,0.2,0.6,0.2,0.9
					c0,0.4-0.1,0.7-0.2,0.9c-0.1,0.3-0.3,0.5-0.5,0.6S150.2,85.8,149.9,85.8z M149.9,85.4c0.2,0,0.4-0.1,0.5-0.2
					c0.1-0.1,0.3-0.3,0.4-0.5c0.1-0.2,0.1-0.5,0.1-0.8c0-0.3,0-0.6-0.1-0.8c-0.1-0.2-0.2-0.4-0.4-0.5c-0.2-0.1-0.3-0.2-0.5-0.2
					s-0.4,0.1-0.5,0.2c-0.2,0.1-0.3,0.3-0.4,0.5c-0.1,0.2-0.1,0.5-0.1,0.8c0,0.3,0,0.6,0.1,0.8s0.2,0.4,0.4,0.5
					C149.5,85.4,149.7,85.4,149.9,85.4z"/>
				<path d="M153.2,85.8c-0.3,0-0.5-0.1-0.7-0.2c-0.2-0.1-0.4-0.4-0.5-0.6s-0.2-0.6-0.2-0.9c0-0.4,0.1-0.7,0.2-0.9
					c0.1-0.3,0.3-0.5,0.5-0.6c0.2-0.1,0.4-0.2,0.7-0.2c0.3,0,0.5,0.1,0.7,0.2c0.2,0.1,0.4,0.3,0.5,0.6c0.1,0.3,0.2,0.6,0.2,0.9
					c0,0.4-0.1,0.7-0.2,0.9c-0.1,0.3-0.3,0.5-0.5,0.6S153.4,85.8,153.2,85.8z M153.2,85.4c0.2,0,0.4-0.1,0.5-0.2
					c0.1-0.1,0.3-0.3,0.4-0.5c0.1-0.2,0.1-0.5,0.1-0.8c0-0.3,0-0.6-0.1-0.8c-0.1-0.2-0.2-0.4-0.4-0.5c-0.2-0.1-0.3-0.2-0.5-0.2
					s-0.4,0.1-0.5,0.2c-0.2,0.1-0.3,0.3-0.4,0.5c-0.1,0.2-0.1,0.5-0.1,0.8c0,0.3,0,0.6,0.1,0.8s0.2,0.4,0.4,0.5
					C152.8,85.4,153,85.4,153.2,85.4z"/>
			</g>
		</g>
		<rect x="136.9" y="62.9" class="st7" width="14.1" height="14.1"/>
	</g>
</g>
</svg>
