<?xml version="1.0" encoding="utf-8"?>
<!-- Generator: Adobe Illustrator 26.0.1, SVG Export Plug-In . SVG Version: 6.00 Build 0)  -->
<svg version="1.1" id="b9f484d5-41e1-4e0c-97f8-b42fd394bbec"
	 xmlns="http://www.w3.org/2000/svg" xmlns:xlink="http://www.w3.org/1999/xlink" x="0px" y="0px" viewBox="0 0 865.8 757.9"
	 style="enable-background:new 0 0 865.8 757.9;" xml:space="preserve">
<style type="text/css">
	.st0{fill:#85AFE0;}
	.st1{opacity:0.7;fill:#FFFFFF;enable-background:new    ;}
	.st2{fill:url(#SVGID_1_);}
	.st3{fill:#636369;}
	.st4{fill:#FFFFFF;}
	.st5{opacity:0.4;enable-background:new    ;}
	.st6{fill:#BCBEC0;}
	.st7{fill:#A7A9AC;}
	.st8{fill:#D1D3D4;}
	.st9{fill:#E6E7E8;}
	.st10{fill:#F9B499;}
	.st11{opacity:0.2;enable-background:new    ;}
	.st12{fill:#F7A48B;}
	.st13{opacity:0.2;fill:#FFFFFF;enable-background:new    ;}
	.st14{opacity:0.4;}
	.st15{fill:#2563EB;}
	.st16{fill:#64748B;}
	.st17{fill:#1E3A8A;}
</style>
<path class="st0" d="M73.1,667.4c0,0-43.7-24.8-26-95.8S193,478.2,151.3,280.4S202.8,13.5,315.2,15.5s108.4,111.7,157.7,125.9
	S595.2,88.7,674.3,159s-8.1,171.1,15.5,248.2c23.7,77.1,120.3,6.1,132.1,91.3S733.2,665,733.2,665L73.1,667.4z"/>
<path class="st1" d="M73.1,667.4c0,0-43.7-24.8-26-95.8S193,478.2,151.3,280.4S202.8,13.5,315.2,15.5s108.4,111.7,157.7,125.9
	S595.2,88.7,674.3,159s-8.1,171.1,15.5,248.2c23.7,77.1,120.3,6.1,132.1,91.3S733.2,665,733.2,665L73.1,667.4z"/>
<g>
	<linearGradient id="SVGID_1_" gradientUnits="userSpaceOnUse" x1="404.0015" y1="758.7341" x2="404.0015" y2="664.5">
		<stop  offset="0" style="stop-color:#FFFFFF;stop-opacity:0"/>
		<stop  offset="1" style="stop-color:#A7A9AC;stop-opacity:0.5"/>
	</linearGradient>
	<path class="st2" d="M477.4,748.2l-166.1-8.3c-0.3,0-0.6-0.3-0.6-0.6c0-0.3,0.3-0.6,0.6-0.6l298.5-19.1l0,3.4L160,708.1
		c-2-0.1-3.5-1.7-3.4-3.7c0.1-1.9,1.6-3.4,3.4-3.4l0,0l512.5-11.3l-0.1,11.6L76.1,684.4c-4.5-0.1-8-3.9-7.9-8.3
		c0.1-4.4,3.7-7.9,8.1-7.9l0.1,0l652.8-3.7c5.8,0,10.5,4.6,10.6,10.4c0,5.8-4.6,10.5-10.4,10.6l-0.1,0l-652.8-1.1l0.2-16.2
		l596.2,21.5l0,0c3.2,0.1,5.7,2.8,5.6,6c-0.1,3.1-2.6,5.5-5.7,5.6l-512.6,6.8l0.1-7.1L610,719.6l0,0c0.9,0,1.7,0.8,1.6,1.8
		c0,0.9-0.7,1.6-1.6,1.6l-298.7,16.9l0-1.2L477.4,748.2z"/>
</g>
<path class="st3" d="M511.3,100.9l-17.6,22c3.3-32.6,30.4-42.7,30.4-42.7C511.1,93.2,511.3,100.9,511.3,100.9z"/>
<polygon class="st0" points="379.1,364.1 255.7,364.1 227,258.3 350.3,258.3 "/>
<polygon class="st4" points="373.4,360.2 259.3,360.2 232.7,262.2 346.8,262.2 "/>
<rect x="255.7" y="358.5" class="st0" width="172.9" height="5.6"/>
<rect x="255.7" y="358.5" class="st5" width="172.9" height="5.6"/>
<rect x="255.7" y="358.5" class="st5" width="79.5" height="5.6"/>
<rect x="474.7" y="368" class="st6" width="9.3" height="295.1"/>
<rect x="484" y="368" class="st7" width="7.9" height="295.1"/>
<rect x="236.6" y="522.4" class="st6" width="9.3" height="140.7"/>
<rect x="245.9" y="522.4" class="st7" width="7.9" height="140.7"/>
<rect x="137" y="522.4" class="st6" width="9.3" height="140.7"/>
<rect x="146.3" y="522.4" class="st7" width="7.9" height="140.7"/>
<rect x="247.3" y="370.9" class="st6" width="90.7" height="159.6"/>
<rect x="127.8" y="370.9" class="st8" width="119.5" height="159.6"/>
<polygon class="st7" points="127.8,370.9 127.8,378.6 247.3,378.6 338,378.6 338,370.9 247.3,370.9 "/>
<rect x="252.9" y="380" class="st8" width="77.3" height="37.2"/>
<rect x="281.4" y="395.1" class="st9" width="20.4" height="7"/>
<rect x="252.9" y="431.3" class="st8" width="77.3" height="37.2"/>
<rect x="281.4" y="445.7" class="st9" width="20.4" height="7"/>
<rect x="252.9" y="482.6" class="st8" width="77.3" height="37.2"/>
<rect x="281.4" y="496.3" class="st9" width="20.4" height="7"/>
<rect x="115.5" y="363.9" class="st8" width="389.2" height="9.3"/>
<rect x="115.5" y="363.9" class="st6" width="117.5" height="9.3"/>
<path class="st10" d="M457.6,447.7c0,0-47.3-16.9-58-0.6s-6.1,40.7-7.2,61s-7.5,92.3-7.5,92.3s-10.7,11.3-13,14.1
	s16.3,26.5,21.4,26.5s8.5-7.4,10.2-13.5s33.8-95,39.5-111.5c17.1-49.6,28.7-57.6,28.7-57.6L457.6,447.7z"/>
<path class="st0" d="M373.6,605c0,0-3.4,0.6-14.1,2.8s-30.4,4.5-37.2,2.8s-8.5-5.6-14.1-2.2s6.8,21.4,10.7,24.2s26,6.2,33.2,11.3
	s20.8,17.5,27,19.2s7.3,0,9-2.2c4-5.7,7.6-11.7,10.7-18c2.8-6.2,7.3-9,7.3-10.7s-6.2-2.8-11.8-3.4s-16.3-9-16.3-9s5.1-6.8,5.6-11.8
	c0.3-3-1.3-5.9-4-7.3L373.6,605z"/>
<path class="st3" d="M360,640.5c-18.6-9.6-35.6-8.4-40.6-13.5s-10.7-11.8-9-18.6c0.1-0.4,0.2-0.8,0.3-1.1c-0.9,0.2-1.8,0.6-2.5,1.1
	c-5.6,3.4,6.7,21.4,10.7,24.2s26,6.2,33.2,11.3c7.3,5.1,20.8,17.5,27,19.2s7.3,0,9-2.2c0.2-0.3,0.5-0.7,0.9-1.3
	C380,652.3,370.3,645.9,360,640.5z"/>
<path class="st3" d="M428,557.9c6.8-18.8,12.8-35.7,15-42c17.1-49.6,28.7-57.6,28.7-57.6l-14.2-10.5c0,0-47.3-16.9-58-0.6
	s-6.1,40.7-7.2,61c-0.4,7.2-1.5,21.1-2.7,35.9L428,557.9z"/>
<path class="st11" d="M428,557.9c6.8-18.8,12.8-35.7,15-42c17.1-49.6,28.7-57.6,28.7-57.6l-14.2-10.5c0,0-47.3-16.9-58-0.6
	s-6.1,40.7-7.2,61c-0.4,7.2-1.5,21.1-2.7,35.9L428,557.9z"/>
<path class="st12" d="M433.1,178c2.6,3.6,2.1,8.7,0.5,8.7s-3.6,1-7.2-2.6c-1.8-1.7-3.3-3.5-4.6-5.6v2.1c0.1,2.6-0.1,5.1-0.5,7.7
	c-0.5,1.5-5.6-1-6.1-6.7c-0.1-4.2,0.6-8.3,2-12.2C422.3,166.3,430.5,174.4,433.1,178z"/>
<path class="st10" d="M404,187.2c4.6,3.2,9.4,6.1,14.3,8.7c6.7,3.6,14.3,5.2,19.9,7.2c2.8,0.8,5.4,2.2,7.7,4.1l81.8,93l5.1-45
	c0,0-72-52.7-75.6-58.3c-1.2-1.8-3.2-4.9-5.5-8.1c-0.8-4-2.8-14.4-6.3-17.4c-2.6-2.3-9.7-3.1-14.2-3.4l-2.2-0.1
	c-3.3-1.5-6.5-3.2-9.6-5.1c-2.6-2.1-11.8-7.7-11.8-4.1s3.1,6.2,7.2,9.2s12.3,7.1,14.8,12.3s2,7.3,0.5,7.7
	c-11.8,2.6-19.5-8.2-24.5-5.1C402.7,184.3,400.4,185,404,187.2z"/>
<path class="st0" d="M477.4,243.1l50.3,57.1l5.1-45c0,0-21.3-15.5-41.3-30.7L477.4,243.1z"/>
<path class="st11" d="M477.4,243.1l50.3,57.1l5.1-45c0,0-21.3-15.5-41.3-30.7L477.4,243.1z"/>
<path class="st10" d="M548.7,462.8c-59.1,10.7-112.7-1.1-112.7-1.1s40.8,105.5,45.8,121.8s18.3,30,18.3,30s-14.7,16.9-26.5,16.3
	s-15.2-5.1-15.2-5.1l1.7-19.2c0,0-96-135.4-102.4-176.5c-1.6-10.1,18-19.1,70.4-27.6s88.4-6.8,88.4-6.8S607.8,452.1,548.7,462.8z"/>
<path class="st3" d="M357.7,429c3.9,24.9,40.6,84.3,69,127.3l39.7-15.2c-13.5-35.5-30.4-79.4-30.4-79.4s53.6,11.8,112.7,1.1
	s-32.1-68.2-32.1-68.2s-36-1.7-88.4,6.8C375.7,409.8,356.1,418.8,357.7,429z"/>
<path class="st0" d="M448.8,626.3c-6.2,7.9-36,19.7-41.1,24.2s6.2,11.3,9,11.8s27,3.9,49-2.8c16.1-5,34.9-9.3,43.8-11.3
	c0.2,0,0.4-0.1,0.6-0.2c2.4-0.9,3.6-3.6,2.7-5.9c-2-5.2-5.1-13.3-6.5-16.9c-1.8-4.9-2.8-10-2.8-15.2c0-3.4-5.1-4-5.1-4
	c-4,2.5-8.1,4.8-12.4,6.8c-5.8,2.4-11.8,4.3-18,5.6c-0.8-2.7-1.7-5.3-2.8-7.9c-0.9-2.3-2.8-4.1-5.1-5.1
	C460.1,605.5,455,618.4,448.8,626.3z"/>
<path class="st3" d="M407.8,650.5c-5.1,4.5,6.2,11.3,9,11.8s27,3.9,49-2.8c16.1-5,34.9-9.3,43.8-11.3c0.2,0,0.4-0.1,0.6-0.2
	c0,0,0,0,0,0c2.4-0.9,3.6-3.6,2.7-5.9c-0.6-1.5-1.2-3.3-1.9-5.1c-14.2,3.3-28.2,7.6-41.8,12.9c-22.5,9-38.4,10.2-47.3,10.2
	S410,654.6,410,649C409.2,649.4,408.5,650,407.8,650.5z"/>
<path class="st0" d="M540.4,235.8c-11.2,9.2-9.7,11.2-12.8,35.3c-3.1,24.1-15.9,117-15.9,117s-6.6,5.6-8.2,8.2s2.1,10.2,7.2,22.5
	s20.4,44.5,34.7,48s47.5-1,60.3-4.1s19.9-18.4,21.5-35.8c1.5-17.4,8.2-96.6,8.7-105.8s-5.6-57.8-5.6-57.8
	C609.9,218.9,551.6,226.6,540.4,235.8z"/>
<path class="st10" d="M523.6,201.4c0.9,0.1,1.8,0.2,2.7,0.2c5,10.2,13.6,30.6,13.6,30.6l42.9-21.5l-8.2-26.6
	c0,0,13.3-25.6,14.3-36.8c0.6-6.4-7.8-15.9-17.8-23.7c-5.3-16.8-17.3-29.2-32.7-31.2c-23.4-3.2-45.7,18.6-49.8,48.7
	C484.5,171.2,500.2,198.2,523.6,201.4z"/>
<polygon class="st12" points="534.1,218.8 539.6,197.3 526.3,201.6 "/>
<path class="st3" d="M546,70.8c12.3,0.6,3.6,11.8,3.6,11.8s31.2-10.3,36.3-7.7s1.5,15.3,1.5,15.3s19.9,5.1,25.5,13.3
	c5.7,8.2-16.3,9.7-16.3,9.7s18.5,17.4,17.4,31.2s-19.5,30.5-24.6,36.2c-5.1,5.7-15.8,11.8-19.4,11.8s-13.5-3.6-13.5-3.6
	c4.2-3.4,8.2-14,11.9-20.5c6.6-11.2-2.9-17.3-7.6-18.3c-4.7-1-12.2,14.3-14.8,13.3c-2.6-1-6.1-14.3-12.8-22s-18.9-11.2-24-19.4
	s2-21,2-21C512.7,85.5,533.7,70.2,546,70.8z"/>
<path class="st0" d="M539.4,245.5c5.1-2.6,27.1-6.6,51.1-2.1s34.8,27.6,42.4,26.6s7.3-12.7,3.6-31.7c-3.7-19-9.8-27.7-19-30.7
	c-9.2-3.1-23.5-8.2-37.3-4.6s-44,20.4-48,24.5c-4.1,4.1-4.6,18.9-4.6,18.9S534.3,248,539.4,245.5z"/>
<path class="st13" d="M539.4,245.5c5.1-2.6,27.1-6.6,51.1-2.1s34.8,27.6,42.4,26.6s7.3-12.7,3.6-31.7c-3.7-19-9.8-27.7-19-30.7
	c-9.2-3.1-23.5-8.2-37.3-4.6s-44,20.4-48,24.5c-4.1,4.1-4.6,18.9-4.6,18.9S534.3,248,539.4,245.5z"/>
<path class="st12" d="M384.2,325.3l1.7,7.6c0,0,0.9,8-0.6,6.5s-3.9-7.9-3.9-7.9s0.1,11.1-1.8,9.9s-3.6-11.8-3.6-11.8L384.2,325.3z"
	/>
<path class="st12" d="M398.3,322.9l-24.3,7.1c1.1-2.5,2.1-5.1,3-7.7c0.6-2.4,4.7-3,4.7-3l15.7-0.2L398.3,322.9z"/>
<path class="st12" d="M390.7,331.2l-16.6-1.2l-6.1,10.6c-0.1,0.2-0.3,0.2-0.5,0.2c0,0,0,0,0,0c-0.3,0-0.6-0.3-0.6-0.7
	c0.4-3.9,2.1-15.9,2.5-17.2c0.5-1.8,22.5,1.2,22.5,1.2C395.4,327,390.7,331.2,390.7,331.2z"/>
<path class="st0" d="M558.7,251.3c0,0-13.6-1.8-21.3,5.9s-27.2,99.4-27.2,99.4s-83.4-14.2-86.4-16.6c-2.2-1.8-14.1-13.8-19.6-19.5
	c-1.8-1.8-4.4-2.4-6.8-1.4c-7.9,3.1-25.5,10-28.7,10.9c-4.1,1.2-12.4,2.4-8.3,3.5s21.9-1.2,21.9-1.2s11.2,12.5,13,14.8
	s13,5.3,13,5.3s105.4,42,111.3,43.8s18.9,1.1,21.9-4.7c3-5.8,36.1-73.9,40.8-98.8s-8.9-34.9-8.9-34.9S564.2,251.4,558.7,251.3z"/>
<path class="st11" d="M558.7,251.3c0,0-13.6-1.8-21.3,5.9s-27.2,99.4-27.2,99.4s-83.4-14.2-86.4-16.6c-2.2-1.8-14.1-13.8-19.6-19.5
	c-1.8-1.8-4.4-2.4-6.8-1.4c-7.9,3.1-25.5,10-28.7,10.9c-4.1,1.2-12.4,2.4-8.3,3.5s21.9-1.2,21.9-1.2s11.2,12.5,13,14.8
	s13,5.3,13,5.3s105.4,42,111.3,43.8s18.9,1.1,21.9-4.7c3-5.8,36.1-73.9,40.8-98.8s-8.9-34.9-8.9-34.9S564.2,251.4,558.7,251.3z"/>
<path class="st10" d="M470.6,349.6c-22-4-45.3-8.4-46.9-9.6c-2.2-1.8-14-13.8-19.6-19.5c-1.8-1.8-4.4-2.4-6.8-1.4
	c-7.9,3.1-25.5,10-28.7,10.9c-4.1,1.2-12.5,2.4-8.3,3.5s22-1.2,22-1.2s11.2,12.5,13,14.8s13,5.3,13,5.3s27.4,10.9,55.1,21.9
	L470.6,349.6z"/>
<path class="st6" d="M632.5,493.6l38.9,169.1l0,0c0.2,0.8,1,1.2,1.7,1c0.8-0.2,1.2-1,1-1.7l-25.8-171.2L632.5,493.6z"/>
<path class="st6" d="M593.9,490.5l1.9,171.2l0,0c0,0,0,0,0,0c0,0.8,0.6,1.4,1.4,1.4s1.4-0.6,1.4-1.4l11.2-169.8L593.9,490.5z"/>
<path class="st6" d="M556.5,490.8l-17.9,170.1c0,0.6,0.4,1.2,1,1.4c0.7,0.2,1.5-0.2,1.8-0.9l30.8-166.9L556.5,490.8z"/>
<path class="st6" d="M496.9,490l-12.2,170.7c0,0.7,0.5,1.3,1.1,1.4c0.8,0.2,1.5-0.3,1.7-1.1l25.2-168L496.9,490z"/>
<path class="st8" d="M465.7,462.8c-10.8,0,2.6,16.4,10.9,24.1s32.5,30.3,91.8,29.3c66.5-1.1,85.6-16.9,96.9-29.3
	c12.7-14.1,17.4-56.6,15.4-113.8c-2-57.2-32.5-72-48.3-64.1c-15.8,7.9-38.4,69-52.2,104.5s-43.4,45.4-43.4,45.4
	C522.9,462.8,476.5,462.8,465.7,462.8z"/>
<ellipse class="st10" cx="561.1" cy="162.4" rx="9.6" ry="13.8"/>
<path class="st9" d="M370.4,127.5l13.2,4.2c-0.1,0.4,0,0.9,0.1,1.3c0.7,1.5,2.5,1.8,4,1.9c0.8,0.1,0.9-1.1,0.2-1.2
	c-0.9,0-1.7-0.2-2.5-0.6c-0.3-0.2-0.5-0.5-0.6-0.8l2.6,1.3c0.7,0.3,1.1-0.8,0.5-1.1l-2.4-1.2h0.1c0.8,0,0.6-1.2-0.2-1.2
	c-0.5,0-0.9,0.2-1.2,0.6l-13.3-4.3C370.1,126.2,369.7,127.3,370.4,127.5z"/>
<path class="st3" d="M374.4,130.4c0.7,0.4,1.5,0.6,2.3,0.6c0.8,0,1.6-0.6,1.7-1.4c0.5-4.7-11.6-3.8-14-3.4c1.2,0.3,2.4,0.7,3.5,1.2
	C370.2,128.3,372.2,129.4,374.4,130.4z"/>
<path class="st0" d="M375.6,101.9c1.2-1.3,0.2-3.7-1.4-4.5s-3.6-0.5-5.4-0.1c4.3-0.2,8.4-1.4,12.2-3.3c-2.2-2.2-5.4-3.1-8.5-2.2
	l8.9-0.3c1.1-0.1,2.4-0.2,3-1.1c0.9-1.3-0.3-3.2-1.8-3.6s-3.1,0-4.6,0.2s-3.4,0.2-4.4-1c5.4,0.5,10.8-1.2,15.1-4.6
	c-4.6-1.3-9.6-1.5-14.3-0.4c5.8-1.7,11.4-4.3,16.4-7.7L373,72.8c9-1,17.2-5.4,23.1-12.3l-14.9,1.3c4.4-3.4,8.8-6.9,12-11.5
	s4.8-10.6,3-15.8c-4.5,5.5-10,10.1-16.3,13.4c-4.8,2.6-10.1,4.4-14.8,7.2s-9,7-10.4,12.3c-1.3,5.2,0.3,10.6,0.6,15.9
	c0.3,4.6-5.6,11.4-2.5,15.6c3.7,5.1,15.3,5.2,20.6,4C374.2,102.8,375,102.4,375.6,101.9z"/>
<path class="st11" d="M375.6,101.9c1.2-1.3,0.2-3.7-1.4-4.5s-3.6-0.5-5.4-0.1c4.3-0.2,8.4-1.4,12.2-3.3c-2.2-2.2-5.4-3.1-8.5-2.2
	l8.9-0.3c1.1-0.1,2.4-0.2,3-1.1c0.9-1.3-0.3-3.2-1.8-3.6s-3.1,0-4.6,0.2s-3.4,0.2-4.4-1c5.4,0.5,10.8-1.2,15.1-4.6
	c-4.6-1.3-9.6-1.5-14.3-0.4c5.8-1.7,11.4-4.3,16.4-7.7L373,72.8c9-1,17.2-5.4,23.1-12.3l-14.9,1.3c4.4-3.4,8.8-6.9,12-11.5
	s4.8-10.6,3-15.8c-4.5,5.5-10,10.1-16.3,13.4c-4.8,2.6-10.1,4.4-14.8,7.2s-9,7-10.4,12.3c-1.3,5.2,0.3,10.6,0.6,15.9
	c0.3,4.6-5.6,11.4-2.5,15.6c3.7,5.1,15.3,5.2,20.6,4C374.2,102.8,375,102.4,375.6,101.9z"/>
<path class="st0" d="M340.5,98.8c1.5-2.9,4.6-4.6,7.8-4.3c1.5,0.1,3,0.3,4.4,0.7c7.4,1.7,14.2,6.2,20.4,11
	c3.3,2.6,18.5,13.2,13.8,20.1c-0.6,0.9-2,1.2-3.6,1.2c-2.3,0.1-5-0.4-6.4-0.2c-1.6,0.2-3.2,0.4-4.7,0.5c-4.4,0.5-8.8,0.1-13-1.2
	c-0.4-0.1-0.7-0.3-1.1-0.4s-0.7-0.3-1.1-0.4c-4.4-1.8-8.5-4.3-12-7.6l0,0c-2.2-2-3.9-4.5-5-7.2l0,0c-0.1-0.2-0.2-0.4-0.2-0.6
	c-0.2-0.6-0.4-1.3-0.5-1.9C338.6,105.2,339,101.8,340.5,98.8z"/>
<path class="st0" d="M404,133.3c0.9,0.1,2.1,0.2,2.6-0.6c0.7-1.1-0.4-2.4-1.4-3.1c-2-1.3-4.3-2.1-6.7-2.5l13.2-1.2
	c0.7-0.1,1.6-0.1,1.9-0.9s-0.4-1.7-1.1-2.2c-3.2-2.2-7.2-2.9-10.9-2l10.7-2.5c1.1-0.2,2.5-0.9,2.2-2c-0.2-0.8-1.2-1.1-2-1.2
	c-5.4-0.6-10.9,0.5-16.3,1.2c-4.5,0.6-9.3-0.5-13.9,0.7c-9.1,2.5,2.6,10.7,6.6,12.5C393.6,131.7,398.9,132.6,404,133.3z"/>
<path class="st0" d="M370.4,114.8c1.7-0.8,1.6-3.3,0.4-4.7s-3.2-1.8-5-2.2c4,1.4,8.3,1.9,12.6,1.5c-1.2-2.9-3.9-4.9-7-5.2l8.4,3.1
	c1,0.4,2.2,0.8,3.2,0.2c1.3-0.8,0.9-3-0.3-4s-2.9-1.2-4.4-1.5s-3.2-1.1-3.7-2.6c4.9,2.5,10.5,3,15.7,1.5c-3.8-3-8.3-5-13.1-5.7
	c6,0.6,12.1,0.3,18.1-0.9l-16.3-7.1c8.7,2.5,18.1,1.5,26.1-2.6l-14.3-4.4c5.4-1.5,10.8-3.1,15.4-6.2s8.4-8,8.7-13.5
	c-6.2,3.4-13.1,5.6-20.2,6.3c-5.5,0.6-11,0.2-16.5,1.1s-11.1,3.2-14.2,7.5s-3.7,9.9-5.4,14.9c-1.5,4.3-9.5,8.5-8.3,13.5
	c1.5,6.1,12.2,10.7,17.5,11.5C368.8,115.1,369.6,115.1,370.4,114.8z"/>
<path class="st0" d="M331.3,97.1c0-0.2,0.1-0.4,0.1-0.6c0.8-4.2,5.5-6.8,9.8-6.5c4.3,0.5,8.4,2.4,11.6,5.3c3,2.8,5,6.6,4.1,10.7
	c-0.3,1.6-1.2,3.1-2.5,4.1c-3.8,2.7-10.6,0.8-15.1-1.5c-1-0.5-1.9-1.1-2.7-1.7C333.6,104.4,330.9,100.8,331.3,97.1z"/>
<path class="st3" d="M331.3,97h0.4c3.1-0.2,6.2,0.4,8.9,1.8c0.3,0.2,0.7,0.4,1,0.7c2.4,1.8,3.9,4.4,5.9,6.7c2.2,2.5,4.3,3,7,3.8
	c0.4,0.1,0.7,0.2,1.1,0.3c3.1,1,6.2,3.3,8.7,5.4c2.9,2.6,6,4.9,9.2,7c1.5,0.9,3.2,1.7,4.9,2.2c0.8,0.3,1.6,0.7,2.3,1.2
	c0.3,0.2,1.6,1.6,2,1.6c-1.9,0.1-3.8-0.6-5.7-0.3c-1.6,0.2-3.2,0.4-4.7,0.5c-6.1,0.5-12.7-0.2-18.4-3.1c-5.4-2.7-11.6-8-13.8-13.7
	l0,0c-0.1-0.2-0.2-0.4-0.2-0.6c-0.2-0.6-0.4-1.3-0.5-1.9c-1-0.5-1.9-1.1-2.7-1.7C333.6,104.4,330.9,100.8,331.3,97z"/>
<path class="st11" d="M331.2,97c-0.4,3.8,2.4,7.3,5.4,9.7c0.9,0.7,1.8,1.2,2.7,1.7c0.1,0.6,0.3,1.3,0.5,1.9c0.1,0.2,0.1,0.4,0.2,0.6
	l0,0c2.2,5.7,8.5,10.9,13.8,13.7c5.6,2.9,12.2,3.7,18.4,3.1c3-0.2,6.1-1,9-0.2c-4.2-2.2-8.8-2-13.4-2c-4.8,0-9.6-1.1-13.9-3.3
	c-5.4-2.7-11.6-8-13.8-13.7l0,0c-0.1-0.2-0.2-0.4-0.2-0.6c-0.2-0.6-0.4-1.3-0.5-1.9c-1-0.5-1.9-1.1-2.7-1.7
	c-2.3-1.9-4.5-4.5-5.2-7.3L331.2,97z"/>
<path class="st9" d="M333.1,96.1c0.2,0.3,0.3,0.7,0.3,1.1c0,1.1-1,2-2.1,1.9c-1.2-0.1-2.3-0.5-3.1-1.3c-0.7-0.6-1.3-1.3-1.7-2.1
	C328.6,95.3,332,93.6,333.1,96.1z"/>
<path class="st4" d="M336.5,97c-0.1,0.7,0.4,1.3,1.1,1.3h0.2c0.6-0.1,1-0.5,1.1-1.1c0.1-0.7-0.4-1.2-1.1-1.3h-0.2
	C337,95.9,336.5,96.4,336.5,97z"/>
<path class="st4" d="M362.4,96c1.3,1.5,3.2,3.4,5.4,2.3c0.8-0.4,1.2-1.2,1.2-2c0.8,0.3,1.6,0.6,2.4,0.8c0.8,0.3,1.8,0.1,2.5-0.4
	c1.5-1.6,0.1-3.2-0.9-4.7c2.3,0.6,4.9,0.8,6.2-1.6c1.7-3.1-1.4-5.8-4-6.8c-0.7-0.3-1.1,0.9-0.4,1.1c2.1,0.8,5.4,3.6,2.7,5.8
	c-1.6,1.3-3.7,0.6-5.4-0.1c-0.2-0.3-0.5-0.4-0.8-0.3c-0.6-0.1-0.8,0.9-0.2,1.2l0.1,0.1c0.2,0.5,0.5,0.9,0.8,1.3
	c0.6,0.7,1.6,1.7,1.2,2.7c-0.5,1.2-3.2,0.2-4.8-0.6c-0.2-0.2-0.4-0.3-0.6-0.4c-0.1,0-0.2,0-0.4,0l-0.2-0.1c-0.7-0.3-1,0.8-0.4,1.1
	l0.8,0.4c0.3,0.5,0,1.2-0.5,1.5c-0.5,0.2-1,0.2-1.5,0.1c-1-0.5-1.9-1.2-2.5-2.1C362.8,94.7,362,95.5,362.4,96z"/>
<path class="st4" d="M392.5,125.2c1.1,0.6,2.3,1.2,3.6,1.6c0.7,0.3,1.6,0.2,2.2-0.2c0,0,0,0,0,0c0.5-0.6,0.3-1.5-0.3-2
	c-0.1-0.1-0.3-0.3-0.5-0.4c1.7,0.4,3.5,0.7,5.2,0.8c1.1,0,3.5,0.4,3.8-1.3s-2.3-2.2-3.3-2.6c-2.8-1.1-5.6-2-8.5-2.6
	c-0.7-0.2-1.1,1-0.3,1.2c1.7,0.4,3.4,0.8,5.1,1.4c1.2,0.4,3.9,0.9,4.9,1.8c0.9,0.1,0.9,0.5,0.1,0.9c-0.6,0-1.1,0-1.7,0
	c-1.1-0.1-2.1-0.2-3.1-0.3c-1.6-0.3-3.2-0.8-4.8-1.3l-0.2-0.1c-0.6-0.5-1.5,0.4-0.9,0.8l1.9,1.5c0.2,0.2,1.9,1.2,1.5,1.6
	c-0.3,0.2-1.6-0.4-1.9-0.6c-0.7-0.3-1.4-0.6-2.1-1C392.4,123.8,391.8,124.9,392.5,125.2z"/>
<path class="st9" d="M365,128.3l13.2,4.2c-0.1,0.4,0,0.9,0.1,1.3c0.7,1.6,2.5,1.8,4,1.9c0.8,0.1,0.9-1.1,0.1-1.2
	c-0.9,0-1.7-0.2-2.5-0.6c-0.3-0.2-0.5-0.5-0.5-0.8l2.6,1.3c0.7,0.3,1.1-0.8,0.5-1.1l-2.4-1.2h0.1c0.8,0,0.6-1.2-0.2-1.2
	c-0.5,0-0.9,0.2-1.2,0.6l-13.3-4.3C364.7,127,364.3,128.1,365,128.3z"/>
<path class="st3" d="M369.1,131.2c0.7,0.4,1.5,0.6,2.3,0.6c0.8,0,1.6-0.6,1.7-1.4c0.5-4.7-11.6-3.8-14-3.5c1.2,0.3,2.4,0.7,3.5,1.2
	C364.8,129.1,366.9,130.2,369.1,131.2z"/>
<g id="e96d4af9-c66a-4c1a-990b-f03a4ba737ec">
	<polyline class="st3" points="132,360.9 127.3,322.7 175.3,322.1 169,361.4 	"/>
	<path class="st0" d="M149.2,314.2c-0.8-2.6-2.8-4.8-5.3-5.9c-2.6-1-5.5-0.9-8,0.4c0.2,2.9,1.8,5.5,4.4,6.9c2.6,1.2,5.6,0.9,8-0.7"
		/>
	<path class="st0" d="M127.3,322.7c-0.8-2.6-2.8-4.8-5.3-5.9c-2.6-1-5.5-0.9-8,0.4c0.2,2.9,1.8,5.5,4.4,6.9c2.6,1.2,5.6,0.9,8-0.7"
		/>
	<path class="st0" d="M139.1,303.4c-0.5-0.4-1-0.8-1.6-1.1c0,0,0,0,0,0c-4.5-2.4-10.1-0.7-12.5,3.8c1.8,2.3,4.6,3.6,7.4,3.4
		c2.8-0.5,5.2-2.4,6.3-5"/>
	<path class="st0" d="M129.5,314.4c-0.2,0.6-0.3,1.3-0.3,2c-0.2,5.1,3.7,9.4,8.8,9.6c1.3-2.6,1.3-5.6-0.2-8.1
		c-1.6-2.3-4.3-3.7-7.2-3.5"/>
	<path class="st0" d="M122.3,329.3c-2.8,0.6-5.1,1.8-6.4,4.1c-1.3,2.5-1.4,5.4-0.5,8c2.9,0.1,5.6-1.2,7.3-3.6c1.5-2.5,1.5-5.5,0.2-8
		"/>
	<path class="st0" d="M110.2,331.5c0.1-0.1,0.2-0.2,0.3-0.3c0.4-0.4,0.9-0.7,1.4-0.9c0.9-0.3,1.8-0.5,2.7-0.6c1.2,0,2.4,0,3.6,0.1
		c1.4,0.1,2.8,0,4.2-0.4c1.5-0.6,2.7-1.8,3.3-3.3c0.7-1.7,1.2-3.4,1.5-5.2c0.3-2,0.9-3.9,1.9-5.6c1.2-1.6,2.6-3.1,4.2-4.2
		c1.4-1.1,2.7-2.4,3.8-3.8c2.8-4.4,2.7-10.1-0.2-14.5c-0.3-0.5-0.7-0.9-1.1-1.3c-0.1-0.1-0.3-0.3-0.4-0.5c0.2,0.1,0.3,0.2,0.5,0.4
		c0.4,0.4,0.8,0.8,1.2,1.3c1.3,1.7,2.1,3.7,2.4,5.8c0.5,3.1-0.2,6.3-1.9,9c-1.1,1.5-2.4,2.8-3.9,3.9c-1.6,1.2-2.9,2.6-4.1,4.1
		c-1,1.7-1.6,3.5-1.8,5.5c-0.3,1.8-0.8,3.6-1.5,5.3c-0.7,1.6-2,2.8-3.6,3.5c-1.4,0.4-2.9,0.6-4.4,0.4c-1.2-0.1-2.4-0.2-3.5-0.2
		c-0.9,0-1.8,0.2-2.6,0.5C111.4,330.6,110.7,331,110.2,331.5C110.2,331.6,110.2,331.5,110.2,331.5z"/>
	<path class="st0" d="M110.2,331.5c0.1-0.1,0.2-0.2,0.3-0.3c0.4-0.4,0.9-0.7,1.4-0.9c0.9-0.3,1.8-0.5,2.7-0.6c1.2,0,2.4,0,3.6,0.1
		c1.4,0.1,2.8,0,4.2-0.4c1.5-0.6,2.7-1.8,3.3-3.3c0.7-1.7,1.2-3.4,1.5-5.2c0.3-2,0.9-3.9,1.9-5.6c1.2-1.6,2.6-3.1,4.2-4.2
		c1.4-1.1,2.7-2.4,3.8-3.8c2.8-4.4,2.7-10.1-0.2-14.5c-0.3-0.5-0.7-0.9-1.1-1.3c-0.1-0.1-0.3-0.3-0.4-0.5c0.2,0.1,0.3,0.2,0.5,0.4
		c0.4,0.4,0.8,0.8,1.2,1.3c1.3,1.7,2.1,3.7,2.4,5.8c0.5,3.1-0.2,6.3-1.9,9c-1.1,1.5-2.4,2.8-3.9,3.9c-1.6,1.2-2.9,2.6-4.1,4.1
		c-1,1.7-1.6,3.5-1.8,5.5c-0.3,1.8-0.8,3.6-1.5,5.3c-0.7,1.6-2,2.8-3.6,3.5c-1.4,0.4-2.9,0.6-4.4,0.4c-1.2-0.1-2.4-0.2-3.5-0.2
		c-0.9,0-1.8,0.2-2.6,0.5C111.4,330.6,110.7,331,110.2,331.5C110.2,331.6,110.2,331.5,110.2,331.5z"/>
	<path class="st0" d="M202.3,335.4c7-0.9,13.1-5.4,16-11.8c-1.6-0.6-3.3-0.9-5-0.8c-6.7,0.4-11.8,6.1-11.4,12.8"/>
	<path class="st0" d="M204.9,336.3c-6,3.8-8.8,11.1-6.8,17.9c2.9-1.9,5.8-4.1,7.5-7.2s1.8-7.2-0.5-9.8"/>
	<path class="st0" d="M193.8,326.2c-3.2-2.2-7.8-1.2-10.7,1.4s-4.4,6.4-5.3,10.1l0.6,0.1c7.7,0.8,14.5-4.9,15.3-12.6"/>
	<path class="st0" d="M193.7,320c5.3,4.1,12.8,3.3,17.2-1.7c-2.8-2.1-6.2-3.6-9.7-3.3s-6.9,2.8-7.5,6.3"/>
	<path class="st0" d="M211.9,349.5c-3.9,1.7-6.5,5.8-7.2,10.1s0.1,8.6,1.5,12.7c3.6-2.4,6.8-5.7,8.2-9.8s0.5-9.1-2.8-11.9"/>
	<path class="st0" d="M194,311.1c-0.9,1.8-2.4,3.2-4.2,4c-4.4,2-9.6,0-11.6-4.4c0.6-0.7,1.2-1.2,1.9-1.7c0,0,0,0,0,0
		c4.6-3.1,10.9-1.9,14.1,2.7"/>
	<path class="st0" d="M190.2,301.8c-0.6-2.4,0.1-5,1.8-6.7c1.9-1.9,4.4-3.1,7-3.5c2.6-0.4,5.3-0.4,7.9-0.1c-0.1,0.5-0.2,1-0.4,1.6
		C204.5,300,197.2,303.9,190.2,301.8"/>
	<path class="st0" d="M180.8,299.5c-1.4-0.3-2.5-1.3-2.9-2.7c-0.4-1.4-0.4-2.8,0-4.1c0.7-3.7,2.3-7.1,4.7-10c0.5,0.4,1,0.9,1.4,1.5
		c0,0,0,0,0,0c3.8,4.6,3.1,11.4-1.5,15.2"/>
	<g class="st14">
		<path d="M202.3,335.4c7-0.9,13.1-5.4,16-11.8c-1.6-0.6-3.3-0.9-5-0.8c-6.7,0.4-11.8,6.1-11.4,12.8"/>
	</g>
	<g class="st14">
		<path d="M204.9,336.3c-6,3.8-8.8,11.1-6.8,17.9c2.9-1.9,5.8-4.1,7.5-7.2s1.8-7.2-0.5-9.8"/>
	</g>
	<g class="st14">
		<path d="M193.8,326.2c-3.2-2.2-7.8-1.2-10.7,1.4s-4.4,6.4-5.3,10.1l0.6,0.1c7.7,0.8,14.5-4.9,15.3-12.6"/>
	</g>
	<g class="st14">
		<path d="M193.7,320c5.3,4.1,12.8,3.3,17.2-1.7c-2.8-2.1-6.2-3.6-9.7-3.3s-6.9,2.8-7.5,6.3"/>
	</g>
	<g class="st14">
		<path d="M211.9,349.5c-3.9,1.7-6.5,5.8-7.2,10.1s0.1,8.6,1.5,12.7c3.6-2.4,6.8-5.7,8.2-9.8s0.5-9.1-2.8-11.9"/>
	</g>
	<g class="st14">
		<path d="M194,311.1c-0.9,1.8-2.4,3.2-4.2,4c-4.4,2-9.6,0-11.6-4.4c0.6-0.7,1.2-1.2,1.9-1.7c0,0,0,0,0,0c4.6-3.1,10.9-1.9,14.1,2.7
			"/>
	</g>
	<g class="st14">
		<path d="M190.2,301.8c-0.6-2.4,0.1-5,1.8-6.7c1.9-1.9,4.4-3.1,7-3.5c2.6-0.4,5.3-0.4,7.9-0.1c-0.1,0.5-0.2,1-0.4,1.6
			C204.5,300,197.2,303.9,190.2,301.8"/>
	</g>
	<g class="st14">
		<path d="M180.8,299.5c-1.4-0.3-2.5-1.3-2.9-2.7c-0.4-1.4-0.4-2.8,0-4.1c0.7-3.7,2.3-7.1,4.7-10c0.5,0.4,1,0.9,1.4,1.5c0,0,0,0,0,0
			c3.8,4.6,3.1,11.4-1.5,15.2"/>
	</g>
	<path class="st0" d="M169.4,323.1c-0.1-0.3-0.1-0.5-0.1-0.8c-0.1-1-0.2-2-0.2-3c-0.1-1.6,0-3.2,0.1-4.8c0.2-2.1,0.7-4.2,1.5-6.2
		c1-2.4,2.5-4.6,4.5-6.4c2.3-2,5.2-3.1,8.3-3.1c1.6,0,3.3,0.4,4.7,1.2c1.5,0.8,2.8,2,3.7,3.5c1.8,3,2.2,6.7,2.1,10.3
		s-0.6,7.2-0.2,10.5s1.6,6.6,4.1,8.5s5.5,2.3,7.9,3.9c2.2,1.4,4,3.4,5.2,5.8c1,1.9,1.5,4.1,1.4,6.2c0,1.6-0.3,3.2-0.9,4.8
		c-0.3,1-0.8,1.9-1.4,2.7c-0.1,0.2-0.3,0.4-0.5,0.6c-0.1,0.1-0.1,0.1-0.2,0.2c0.7-1.1,1.4-2.4,1.8-3.6c0.5-1.5,0.8-3.1,0.8-4.7
		c0-2.1-0.5-4.2-1.5-6.1c-1.2-2.3-2.9-4.2-5.1-5.5c-1.2-0.7-2.5-1.3-3.9-1.8c-1.5-0.5-2.9-1.2-4.1-2.1c-1.3-1-2.3-2.4-3-3.9
		c-0.7-1.6-1.1-3.2-1.3-4.9c-0.4-3.4,0.1-7,0.2-10.6s-0.3-7.1-2-10c-0.8-1.4-2-2.6-3.5-3.3c-1.4-0.7-2.9-1.1-4.5-1.1
		c-2.9-0.1-5.8,1-8,2.9c-1.9,1.7-3.4,3.8-4.4,6.2c-1.3,3.5-1.9,7.2-1.8,10.9c0,1.3,0.1,2.3,0.1,3
		C169.4,322.6,169.4,322.8,169.4,323.1c0,0.1,0,0.2,0,0.3C169.4,323.3,169.4,323.2,169.4,323.1z"/>
	<g class="st14">
		<path d="M169.4,323.1c-0.1-0.3-0.1-0.5-0.1-0.8c-0.1-1-0.2-2-0.2-3c-0.1-1.6,0-3.2,0.1-4.8c0.2-2.1,0.7-4.2,1.5-6.2
			c1-2.4,2.5-4.6,4.5-6.4c2.3-2,5.2-3.1,8.3-3.1c1.6,0,3.3,0.4,4.7,1.2c1.5,0.8,2.8,2,3.7,3.5c1.8,3,2.2,6.7,2.1,10.3
			s-0.6,7.2-0.2,10.5s1.6,6.6,4.1,8.5s5.5,2.3,7.9,3.9c2.2,1.4,4,3.4,5.2,5.8c1,1.9,1.5,4.1,1.4,6.2c0,1.6-0.3,3.2-0.9,4.8
			c-0.3,1-0.8,1.9-1.4,2.7c-0.1,0.2-0.3,0.4-0.5,0.6c-0.1,0.1-0.1,0.1-0.2,0.2c0.7-1.1,1.4-2.4,1.8-3.6c0.5-1.5,0.8-3.1,0.8-4.7
			c0-2.1-0.5-4.2-1.5-6.1c-1.2-2.3-2.9-4.2-5.1-5.5c-1.2-0.7-2.5-1.3-3.9-1.8c-1.5-0.5-2.9-1.2-4.1-2.1c-1.3-1-2.3-2.4-3-3.9
			c-0.7-1.6-1.1-3.2-1.3-4.9c-0.4-3.4,0.1-7,0.2-10.6s-0.3-7.1-2-10c-0.8-1.4-2-2.6-3.5-3.3c-1.4-0.7-2.9-1.1-4.5-1.1
			c-2.9-0.1-5.8,1-8,2.9c-1.9,1.7-3.4,3.8-4.4,6.2c-1.3,3.5-1.9,7.2-1.8,10.9c0,1.3,0.1,2.3,0.1,3
			C169.4,322.6,169.4,322.8,169.4,323.1c0,0.1,0,0.2,0,0.3C169.4,323.3,169.4,323.2,169.4,323.1z"/>
	</g>
	<path class="st0" d="M99.1,313.9c-0.3-0.9-0.5-1.8-0.5-2.7c-0.1-4.7,3.4-8.7,8.1-9.1c1.2-0.1,2.4,0,3.6,0.4
		c2.5,0.6,4.8,1.9,7.5,2.5c1.3,0.3,2.7,0.2,4-0.1c1.4-0.5,2.5-1.4,3.2-2.6c1.6-2.5,2.1-5.8,4.2-8.3c1.1-1.2,2.4-2.2,4-2.6
		c3-0.9,6.2-0.6,9,0.9c1.3,0.7,2.4,1.6,3.4,2.7c1.8,2,3,4.4,3.7,7c0.6,2.2,0.9,4.5,0.8,6.8c-0.2,3.3-0.7,6.6-1.4,9.8
		c-0.2,1.1-0.4,2-0.5,2.6l-0.2,0.7c0,0.1-0.1,0.1-0.1,0.2c0-0.1,0-0.2,0-0.2c0.1-0.2,0.1-0.5,0.1-0.7l0.5-2.7
		c0.6-3.2,1.1-6.5,1.2-9.8c0.1-2.3-0.2-4.5-0.8-6.7c-0.7-2.5-1.9-4.8-3.7-6.8c-1.9-2.2-4.5-3.5-7.4-3.8c-1.5-0.2-3,0-4.4,0.5
		c-1.5,0.4-2.8,1.3-3.8,2.5c-2,2.4-2.5,5.7-4.2,8.3c-0.8,1.3-2.1,2.3-3.5,2.8c-1.4,0.4-2.9,0.4-4.3,0.1c-2.8-0.5-5.1-1.9-7.5-2.5
		c-1.1-0.3-2.3-0.5-3.5-0.4c-1.1,0.1-2.1,0.4-3.1,0.8c-1.7,0.8-3.1,2.1-3.9,3.8c-0.6,1.3-1,2.7-0.9,4.1c0,1.2,0.3,2.4,0.7,3.5
		C99.3,314.5,99.2,314.2,99.1,313.9z"/>
	<path class="st0" d="M127.9,296.5c-0.8-2.6-2.8-4.8-5.3-5.9c-2.6-1-5.5-0.9-8,0.4c0.2,2.9,1.8,5.5,4.4,6.9c2.8,1.2,6,1,8.6-0.6"/>
	<path class="st0" d="M117.9,304.9c-2.7-0.7-5.5-0.1-7.8,1.4c-2.2,1.7-3.6,4.2-3.8,7c2.6,1.3,5.6,1.3,8.2-0.1c2.5-1.7,4-4.6,4-7.6"
		/>
	<path class="st0" d="M103.1,303c-0.1-0.7-0.3-1.3-0.6-1.9c-1.9-4.7-7.3-6.9-12-5c-0.1,2.9,1.3,5.6,3.6,7.3c2.6,1.5,5.8,1.6,8.6,0.4
		"/>
	<path class="st0" d="M140.3,291.9c-0.5-0.4-1.1-0.8-1.5-1.3c-3.6-3.6-3.5-9.5,0.2-13c2.7,1.1,4.7,3.4,5.3,6.2
		c0.4,2.6-1.1,6.1-3.4,8.1"/>
	<path class="st0" d="M202,279.8c-0.3-0.5-0.8-1.2-1.5-2.1c-1.9-2.5-4.2-4.7-6.9-6.3c-1.8-1.1-3.9-1.8-6-2.1
		c-2.4-0.3-4.9-0.1-7.3,0.8c-2.6,0.9-4.7,2.7-6.1,5.1c-1.4,2.5-1.9,5.4-2.8,8.4c-0.4,1.5-1,2.9-1.8,4.2c-0.9,1.2-1.9,2.3-3.2,3.1
		c-1.2,0.9-2.4,1.6-3.4,2.5c-1,0.8-1.9,1.8-2.7,2.9c-1.4,2-2.4,4.4-2.8,6.8c-0.4,2.1-0.6,4.3-0.4,6.4c0.2,3.1,0.7,6.2,1.5,9.3
		c0.2,1,0.5,1.9,0.6,2.5c0.1,0.3,0.2,0.6,0.2,0.9c-0.1-0.3-0.2-0.6-0.3-0.9c-0.2-0.6-0.4-1.4-0.7-2.5c-0.8-3-1.4-6.2-1.7-9.3
		c-0.2-2.2,0-4.4,0.4-6.6c0.5-2.5,1.4-4.9,2.8-7c0.8-1.1,1.7-2.1,2.8-3c1.1-0.9,2.3-1.6,3.4-2.5c1.2-0.8,2.2-1.8,3-3
		c0.8-1.2,1.4-2.6,1.8-4c0.9-2.9,1.3-5.9,2.8-8.5c1.5-2.4,3.7-4.3,6.4-5.2c2.4-0.9,5-1.2,7.5-0.8c2.2,0.3,4.3,1.1,6.2,2.3
		c2.7,1.7,5.1,3.9,6.9,6.5c0.7,0.9,1.1,1.7,1.4,2.2l0.3,0.6c0,0.1,0.1,0.1,0.1,0.2C202.3,280.3,202.1,280,202,279.8z"/>
	<path class="st0" d="M165.2,291.1c-0.9,1.6-1.4,3.4-1.3,5.3c0.3,5.2,4.7,9.3,9.9,9c1.3-4.7-0.2-9.7-3.9-12.8
		c-0.8-0.7-1.8-1.2-2.9-1.4c-1.1-0.2-1.5-0.7-2.2,0"/>
	<path class="st0" d="M197.7,276.1c-0.1,1.8,0.2,3.6,1.1,5.1c2.4,4.6,8.2,6.4,12.8,4c-0.8-4.8-4.3-8.6-9-9.8
		c-1.1-0.3-2.2-0.3-3.2-0.1c-1,0.3-1.6,0-2,1"/>
	<path class="st0" d="M156.9,312c2.5,2.3,5.7,3.5,9,3.6c3.3,0,6.5-1.3,8.9-3.5c-0.5-0.7-1-1.3-1.7-1.8c-4.6-4-11.5-3.6-15.5,1"/>
	<path class="st0" d="M160.6,296.1c0.6-1.8,0.7-3.7,0.3-5.5c-1.2-5.4-6.5-8.8-11.9-7.6c-0.2,0.8-0.2,1.6-0.2,2.5
		c0.2,6.1,5.3,10.9,11.4,10.8"/>
	<path class="st0" d="M172,278.4c0-1.9-0.5-3.8-1.5-5.5c-2.9-4.6-9.1-6-13.7-3.1c0.1,0.8,0.3,1.6,0.6,2.4c2.2,5.7,8.6,8.6,14.4,6.3"
		/>
	<path class="st0" d="M175.3,273.1c0,1.9,0.5,3.8,1.5,5.4c2.9,4.7,9.1,6.1,13.8,3.1c-0.1-0.8-0.3-1.6-0.6-2.4c0,0,0,0,0,0
		c-2.2-5.7-8.6-8.5-14.4-6.3"/>
	<path class="st0" d="M180.5,269.8c1.2-1.4,2-3.2,2.2-5.1c0.8-5.5-3.1-10.5-8.5-11.3c-0.4,0.7-0.8,1.5-1,2.2c0,0,0,0,0,0
		c-1.9,5.8,1.2,12.1,7,14"/>
	<path class="st0" d="M192.1,270.6c1.9,0,3.7-0.4,5.3-1.4c4.7-2.8,6.3-9,3.5-13.7c-0.8,0.1-1.6,0.3-2.4,0.6
		c-5.8,2.1-8.7,8.5-6.6,14.2"/>
	<polygon class="st3" points="124,356.9 127,361.4 172.2,361.4 175.9,356.9 	"/>
	<polygon class="st11" points="124,356.9 127,361.4 172.2,361.4 175.9,356.9 	"/>
</g>
<g>
	<g>
		<g>
			<g>
				<path class="st15" d="M313.1,288.9l-10.5,7.2c-0.9,0.6-1.2,1.7-0.9,2.9l4.2,15.3c0.4,1.5,2.3,2.5,3.5,1.7l9.2-6.2
					c1.7-1.2,2.4-3.4,1.8-5.7l-3.7-13.4C316.1,289.1,314.2,288.1,313.1,288.9z"/>
				<path class="st15" d="M308.4,282.7l-11.1-5.5c-2.4-1.2-4.9-1.2-6.6,0l-8.1,5.5c-1.1,0.8-0.6,2.7,0.9,3.4l13,6.5
					c1.2,0.6,2.5,0.6,3.3,0l9.5-6.5C310.5,285.4,310,283.4,308.4,282.7z"/>
				<path class="st16" d="M295.7,296.1l-14.4-7.2c-1.5-0.8-2.9,0.2-2.5,1.7l3.6,13.4c0.6,2.4,2.5,4.5,4.9,5.7l12.6,6.2
					c1.5,0.8,3-0.2,2.5-1.7l-4.2-15.3C297.9,297.7,296.9,296.7,295.7,296.1z"/>
			</g>
			<g>
				<g>
					<polygon class="st16" points="287.8,336.7 280.8,328.7 279.8,328.7 283.1,340.7 284.4,340.7 281.9,331.5 287.8,338.2 
						288.7,338.2 291,331.5 293.5,340.7 294.8,340.7 291.6,328.7 290.6,328.7 					"/>
					<path class="st16" d="M301.4,332.5l-1.1,6.3l-4.4-6.3h-1.4l5.4,7.6l-0.9,4.1h1.4c0.5-2.2,1.9-9.3,2.4-11.7H301.4z"/>
				</g>
				<g>
					<path class="st17" d="M312,334.2c1.7-1.1,0.7-4.2-1.6-5.2c-0.6-0.3-1.4-0.5-2.2-0.5h-4.7l3.3,12.2h4.9c0.9,0,1.6-0.2,2.1-0.5
						C315.9,339,314.8,335.3,312,334.2z M308.5,330.2c0.5,0,1,0.1,1.4,0.4c0.8,0.5,1.2,1.9,0.6,2.4c-0.2,0.3-0.6,0.4-1.2,0.4h-2.6
						l-0.9-3.2H308.5z M312.5,338.4c-0.2,0.4-0.7,0.6-1.3,0.6h-2.9l-1-3.8h2.9c0.4,0,0.8,0.1,1.1,0.3
						C312.5,336,313.1,337.6,312.5,338.4z"/>
					<polygon class="st17" points="317.5,340.7 319.4,340.7 316,328.2 314,328.2 					"/>
					<path class="st17" d="M325.6,332.7c-3.3-1.7-6.7,0.4-5.7,3.8c0.8,3.4,5.3,5.5,7.8,3.8C330.1,338.8,328.9,334.3,325.6,332.7z
						 M326.8,337.8c-0.3,1.2-1.9,1.6-3.2,0.9c-1.4-0.6-2.1-2.4-1.8-3.5c0.3-1.2,1.9-1.5,3.2-0.9C326.4,335,327.2,336.7,326.8,337.8z
						"/>
					<path class="st17" d="M335.3,332.3l0.2,0.9c-3.2-2.5-6.9-0.3-5.8,3.1c0.8,3.5,5.7,5.7,7.5,3.1l0.3,0.9c0.8,2.7-3.2,2.8-5,0.9
						l-0.9,1.3c2.4,2.5,7,2.5,7.9-0.1c0.2-0.6,0.2-1.3,0-2.1l-2.2-8H335.3z M336,338.4c-0.9,0.6-2.7,0.3-3.6-0.8
						c-0.9-1.1-1.1-2.7-0.1-3.3c0.9-0.6,2.6-0.3,3.5,0.8C336.8,336.2,337,337.9,336,338.4z"/>
				</g>
			</g>
		</g>
	</g>
</g>
</svg>
